<?xml version="1.0" encoding="utf-8" standalone="no"?>
<!DOCTYPE svg PUBLIC "-//W3C//DTD SVG 1.1//EN"
  "http://www.w3.org/Graphics/SVG/1.1/DTD/svg11.dtd">
<svg xmlns:xlink="http://www.w3.org/1999/xlink" width="739.8pt" height="408.024pt" viewBox="0 0 739.8 408.024" xmlns="http://www.w3.org/2000/svg" version="1.1">
 <metadata>
  <rdf:RDF xmlns:dc="http://purl.org/dc/elements/1.1/" xmlns:cc="http://creativecommons.org/ns#" xmlns:rdf="http://www.w3.org/1999/02/22-rdf-syntax-ns#">
   <cc:Work>
    <dc:type rdf:resource="http://purl.org/dc/dcmitype/StillImage"/>
    <dc:date>2026-09-20T22:34:02.996547</dc:date>
    <dc:format>image/svg+xml</dc:format>
    <dc:creator>
     <cc:Agent>
      <dc:title>Matplotlib v3.11.1, https://matplotlib.org/</dc:title>
     </cc:Agent>
    </dc:creator>
   </cc:Work>
  </rdf:RDF>
 </metadata>
 <defs>
  <style type="text/css">*{stroke-linejoin: round; stroke-linecap: butt}</style>
 </defs>
 <g id="figure_1">
  <g id="patch_1">
   <path d="M 0 408.024 
L 739.8 408.024 
L 739.8 0 
L 0 0 
z
" style="fill: #ffffff"/>
  </g>
  <g id="axes_1">
   <g id="patch_2">
    <path d="M 7.2 37.692 
L 732.6 37.692 
L 732.6 7.2 
L 7.2 7.2 
z
" clip-path="url(#p75f40c5d4c)" style="fill: #5b3f85"/>
   </g>
   <g id="patch_3">
    <path d="M 29.52 145.8 
L 113.22 145.8 
Q 118.8 145.8 118.8 140.256 
L 118.8 90.36 
Q 118.8 84.816 113.22 84.816 
L 29.52 84.816 
Q 23.94 84.816 23.94 90.36 
L 23.94 140.256 
Q 23.94 145.8 29.52 145.8 
z
" clip-path="url(#p75f40c5d4c)" style="fill: #ffffff; stroke: #5b3f85; stroke-width: 1.3; stroke-linejoin: miter"/>
   </g>
   <g id="patch_4">
    <path d="M 152.28 137.484 
L 219.24 137.484 
Q 224.82 137.484 224.82 131.94 
L 224.82 98.676 
Q 224.82 93.132 219.24 93.132 
L 152.28 93.132 
Q 146.7 93.132 146.7 98.676 
L 146.7 131.94 
Q 146.7 137.484 152.28 137.484 
z
" clip-path="url(#p75f40c5d4c)" style="fill: #e8dff3; stroke: #5b3f85; stroke-width: 1.3; stroke-linejoin: miter"/>
   </g>
   <g id="patch_5">
    <path d="M 120.799182 115.308 
Q 132.748906 115.308 143.133383 115.308 
" clip-path="url(#p75f40c5d4c)" style="fill: none; stroke: #222222; stroke-width: 1.4; stroke-linecap: round"/>
    <path d="M 137.933383 112.708 
L 143.133383 115.308 
L 137.933383 117.908 
z
" clip-path="url(#p75f40c5d4c)" style="fill: #222222; stroke: #222222; stroke-width: 1.4; stroke-linecap: round"/>
   </g>
   <g id="patch_6">
    <path d="M 258.3 173.52 
L 392.22 173.52 
Q 397.8 173.52 397.8 167.976 
L 397.8 62.64 
Q 397.8 57.096 392.22 57.096 
L 258.3 57.096 
Q 252.72 57.096 252.72 62.64 
L 252.72 167.976 
Q 252.72 173.52 258.3 173.52 
z
" clip-path="url(#p75f40c5d4c)" style="fill: #f6f2fb; stroke-dasharray: 4.81,2.08; stroke-dashoffset: 0; stroke: #5b3f85; stroke-width: 1.3; stroke-linejoin: miter"/>
   </g>
   <g id="patch_7">
    <path d="M 269.46 120.852 
L 325.26 120.852 
Q 330.84 120.852 330.84 115.308 
L 330.84 101.448 
Q 330.84 95.904 325.26 95.904 
L 269.46 95.904 
Q 263.88 95.904 263.88 101.448 
L 263.88 115.308 
Q 263.88 120.852 269.46 120.852 
z
" clip-path="url(#p75f40c5d4c)" style="fill: #ffffff; stroke-dasharray: 4.81,2.08; stroke-dashoffset: 0; stroke: #5b3f85; stroke-width: 1.3; stroke-linejoin: miter"/>
   </g>
   <g id="patch_8">
    <path d="M 344.79 120.852 
L 383.85 120.852 
Q 389.43 120.852 389.43 115.308 
L 389.43 101.448 
Q 389.43 95.904 383.85 95.904 
L 344.79 95.904 
Q 339.21 95.904 339.21 101.448 
L 339.21 115.308 
Q 339.21 120.852 344.79 120.852 
z
" clip-path="url(#p75f40c5d4c)" style="fill: #e8dff3; stroke: #5b3f85; stroke-width: 1.3; stroke-linejoin: miter"/>
   </g>
   <g id="patch_9">
    <path d="M 332.838501 108.6552 
Q 335.024037 108.6552 336.091539 108.6552 
" clip-path="url(#p75f40c5d4c)" style="fill: none; stroke: #222222; stroke-linecap: round"/>
    <path d="M 330.891539 106.0552 
L 336.091539 108.6552 
L 330.891539 111.2552 
z
" clip-path="url(#p75f40c5d4c)" style="fill: #222222; stroke: #222222; stroke-linecap: round"/>
   </g>
   <g id="patch_10">
    <path d="M 269.46 154.116 
L 325.26 154.116 
Q 330.84 154.116 330.84 148.572 
L 330.84 134.712 
Q 330.84 129.168 325.26 129.168 
L 269.46 129.168 
Q 263.88 129.168 263.88 134.712 
L 263.88 148.572 
Q 263.88 154.116 269.46 154.116 
z
" clip-path="url(#p75f40c5d4c)" style="fill: #ffffff; stroke-dasharray: 4.81,2.08; stroke-dashoffset: 0; stroke: #5b3f85; stroke-width: 1.3; stroke-linejoin: miter"/>
   </g>
   <g id="patch_11">
    <path d="M 344.79 154.116 
L 383.85 154.116 
Q 389.43 154.116 389.43 148.572 
L 389.43 134.712 
Q 389.43 129.168 383.85 129.168 
L 344.79 129.168 
Q 339.21 129.168 339.21 134.712 
L 339.21 148.572 
Q 339.21 154.116 344.79 154.116 
z
" clip-path="url(#p75f40c5d4c)" style="fill: #e8dff3; stroke: #5b3f85; stroke-width: 1.3; stroke-linejoin: miter"/>
   </g>
   <g id="patch_12">
    <path d="M 332.838501 141.9192 
Q 335.024037 141.9192 336.091539 141.9192 
" clip-path="url(#p75f40c5d4c)" style="fill: none; stroke: #222222; stroke-linecap: round"/>
    <path d="M 330.891539 139.3192 
L 336.091539 141.9192 
L 330.891539 144.5192 
z
" clip-path="url(#p75f40c5d4c)" style="fill: #222222; stroke: #222222; stroke-linecap: round"/>
   </g>
   <g id="patch_13">
    <path d="M 226.819182 115.308 
Q 238.768906 115.308 249.153383 115.308 
" clip-path="url(#p75f40c5d4c)" style="fill: none; stroke: #222222; stroke-width: 1.4; stroke-linecap: round"/>
    <path d="M 243.953383 112.708 
L 249.153383 115.308 
L 243.953383 117.908 
z
" clip-path="url(#p75f40c5d4c)" style="fill: #222222; stroke: #222222; stroke-width: 1.4; stroke-linecap: round"/>
   </g>
   <g id="patch_14">
    <path d="M 431.28 137.484 
L 514.98 137.484 
Q 520.56 137.484 520.56 131.94 
L 520.56 98.676 
Q 520.56 93.132 514.98 93.132 
L 431.28 93.132 
Q 425.7 93.132 425.7 98.676 
L 425.7 131.94 
Q 425.7 137.484 431.28 137.484 
z
" clip-path="url(#p75f40c5d4c)" style="fill: #ffffff; stroke: #5b3f85; stroke-width: 1.3; stroke-linejoin: miter"/>
   </g>
   <g id="patch_15">
    <path d="M 399.799182 115.308 
Q 411.748906 115.308 422.133383 115.308 
" clip-path="url(#p75f40c5d4c)" style="fill: none; stroke: #222222; stroke-width: 1.4; stroke-linecap: round"/>
    <path d="M 416.933383 112.708 
L 422.133383 115.308 
L 416.933383 117.908 
z
" clip-path="url(#p75f40c5d4c)" style="fill: #222222; stroke: #222222; stroke-width: 1.4; stroke-linecap: round"/>
   </g>
   <g id="patch_16">
    <path d="M 554.04 137.484 
L 626.58 137.484 
Q 632.16 137.484 632.16 131.94 
L 632.16 98.676 
Q 632.16 93.132 626.58 93.132 
L 554.04 93.132 
Q 548.46 93.132 548.46 98.676 
L 548.46 131.94 
Q 548.46 137.484 554.04 137.484 
z
" clip-path="url(#p75f40c5d4c)" style="fill: #ffffff; stroke-dasharray: 4.81,2.08; stroke-dashoffset: 0; stroke: #5b3f85; stroke-width: 1.3; stroke-linejoin: miter"/>
   </g>
   <g id="patch_17">
    <path d="M 522.559182 115.308 
Q 534.508906 115.308 544.893383 115.308 
" clip-path="url(#p75f40c5d4c)" style="fill: none; stroke: #222222; stroke-width: 1.4; stroke-linecap: round"/>
    <path d="M 539.693383 112.708 
L 544.893383 115.308 
L 539.693383 117.908 
z
" clip-path="url(#p75f40c5d4c)" style="fill: #222222; stroke: #222222; stroke-width: 1.4; stroke-linecap: round"/>
   </g>
   <g id="patch_18">
    <path d="M 665.64 137.484 
L 715.86 137.484 
Q 721.44 137.484 721.44 131.94 
L 721.44 98.676 
Q 721.44 93.132 715.86 93.132 
L 665.64 93.132 
Q 660.06 93.132 660.06 98.676 
L 660.06 131.94 
Q 660.06 137.484 665.64 137.484 
z
" clip-path="url(#p75f40c5d4c)" style="fill: #ffffff; stroke: #5b3f85; stroke-width: 1.3; stroke-linejoin: miter"/>
   </g>
   <g id="patch_19">
    <path d="M 634.159182 115.308 
Q 646.108906 115.308 656.493383 115.308 
" clip-path="url(#p75f40c5d4c)" style="fill: none; stroke: #222222; stroke-width: 1.4; stroke-linecap: round"/>
    <path d="M 651.293383 112.708 
L 656.493383 115.308 
L 651.293383 117.908 
z
" clip-path="url(#p75f40c5d4c)" style="fill: #222222; stroke: #222222; stroke-width: 1.4; stroke-linecap: round"/>
   </g>
   <g id="patch_20">
    <path d="M 554.04 223.416 
L 715.86 223.416 
Q 721.44 223.416 721.44 217.872 
L 721.44 179.064 
Q 721.44 173.52 715.86 173.52 
L 554.04 173.52 
Q 548.46 173.52 548.46 179.064 
L 548.46 217.872 
Q 548.46 223.416 554.04 223.416 
z
" clip-path="url(#p75f40c5d4c)" style="fill: #e8dff3; stroke: #5b3f85; stroke-width: 1.3; stroke-linejoin: miter"/>
   </g>
   <g id="patch_21">
    <path d="M 690.75 139.485511 
Q 690.75 155.503574 690.75 170.403603 
" clip-path="url(#p75f40c5d4c)" style="fill: none; stroke: #222222; stroke-linecap: round"/>
    <path d="M 693.35 165.203603 
L 690.75 170.403603 
L 688.15 165.203603 
z
" clip-path="url(#p75f40c5d4c)" style="fill: #222222; stroke: #222222; stroke-linecap: round"/>
   </g>
   <g id="patch_22">
    <path d="M 431.28 217.872 
L 514.98 217.872 
Q 520.56 217.872 520.56 212.328 
L 520.56 184.608 
Q 520.56 179.064 514.98 179.064 
L 431.28 179.064 
Q 425.7 179.064 425.7 184.608 
L 425.7 212.328 
Q 425.7 217.872 431.28 217.872 
z
" clip-path="url(#p75f40c5d4c)" style="fill: #ffffff; stroke: #5b3f85; stroke-width: 1.3; stroke-linejoin: miter"/>
   </g>
   <g id="patch_23">
    <path d="M 522.559182 198.468 
Q 534.508906 198.468 545.340597 198.468 
" clip-path="url(#p75f40c5d4c)" style="fill: none; stroke: #222222; stroke-linecap: round"/>
    <path d="M 540.140597 195.868 
L 545.340597 198.468 
L 540.140597 201.068 
z
" clip-path="url(#p75f40c5d4c)" style="fill: #222222; stroke: #222222; stroke-linecap: round"/>
   </g>
   <g id="patch_24">
    <path d="M 29.52 278.856 
L 202.5 278.856 
Q 208.08 278.856 208.08 273.312 
L 208.08 248.364 
Q 208.08 242.82 202.5 242.82 
L 29.52 242.82 
Q 23.94 242.82 23.94 248.364 
L 23.94 273.312 
Q 23.94 278.856 29.52 278.856 
z
" clip-path="url(#p75f40c5d4c)" style="fill: #fff6d5; stroke: #8a6d00; stroke-width: 1.3; stroke-linejoin: miter"/>
   </g>
   <g id="patch_25">
    <path d="M 230.4 278.856 
L 475.92 278.856 
Q 481.5 278.856 481.5 273.312 
L 481.5 248.364 
Q 481.5 242.82 475.92 242.82 
L 230.4 242.82 
Q 224.82 242.82 224.82 248.364 
L 224.82 273.312 
Q 224.82 278.856 230.4 278.856 
z
" clip-path="url(#p75f40c5d4c)" style="fill: #fff6d5; stroke: #8a6d00; stroke-width: 1.3; stroke-linejoin: miter"/>
   </g>
   <g id="patch_26">
    <path d="M 547.544568 208.562328 
Q 526.929115 247.766569 484.564229 256.095375 
" clip-path="url(#p75f40c5d4c)" style="fill: none; stroke: #222222; stroke-linecap: round"/>
    <path d="M 490.168112 257.643438 
L 484.564229 256.095375 
L 489.165009 252.541106 
z
" clip-path="url(#p75f40c5d4c)" style="fill: #222222; stroke: #222222; stroke-linecap: round"/>
   </g>
   <g id="patch_27">
    <path d="M 420.12 367.56 
L 715.86 367.56 
Q 721.44 367.56 721.44 362.016 
L 721.44 306.576 
Q 721.44 301.032 715.86 301.032 
L 420.12 301.032 
Q 414.54 301.032 414.54 306.576 
L 414.54 362.016 
Q 414.54 367.56 420.12 367.56 
z
" clip-path="url(#p75f40c5d4c)" style="fill: #fde2e2; stroke: #a12a2a; stroke-width: 1.3; stroke-linejoin: miter"/>
   </g>
   <g id="patch_28">
    <path d="M 637.74 55.9872 
L 655.596 55.9872 
L 655.596 46.5624 
L 637.74 46.5624 
z
" clip-path="url(#p75f40c5d4c)" style="fill: #ffffff; stroke-dasharray: 4.07,1.76; stroke-dashoffset: 0; stroke: #222222; stroke-width: 1.1; stroke-linejoin: miter"/>
   </g>
   <g id="patch_29">
    <path d="M 637.74 73.728 
L 655.596 73.728 
L 655.596 64.3032 
L 637.74 64.3032 
z
" clip-path="url(#p75f40c5d4c)" style="fill: #ffffff; stroke: #222222; stroke-width: 1.1; stroke-linejoin: miter"/>
   </g>
   <g id="patch_30">
    <path d="M 637.74 91.4688 
L 655.596 91.4688 
L 655.596 82.044 
L 637.74 82.044 
z
" clip-path="url(#p75f40c5d4c)" style="fill: #fde2e2; stroke: #a12a2a; stroke-width: 1.1; stroke-linejoin: miter"/>
   </g>
   <g id="text_1">
    <!-- EXPLAIN  —  briefs trained against the policy -->
    <g style="fill: #ffffff" transform="translate(21.15 26.100661) scale(0.13 -0.13)">
     <defs>
      <path id="DejaVuSans-Bold-28" d="M 588 4666 
L 3834 4666 
L 3834 3756 
L 1791 3756 
L 1791 2888 
L 3713 2888 
L 3713 1978 
L 1791 1978 
L 1791 909 
L 3903 909 
L 3903 0 
L 588 0 
L 588 4666 
z
" transform="scale(0.015625)"/>
      <path id="DejaVuSans-Bold-3b" d="M 3188 2381 
L 4806 0 
L 3553 0 
L 2463 1594 
L 1381 0 
L 122 0 
L 1741 2381 
L 184 4666 
L 1441 4666 
L 2463 3163 
L 3481 4666 
L 4744 4666 
L 3188 2381 
z
" transform="scale(0.015625)"/>
      <path id="DejaVuSans-Bold-33" d="M 588 4666 
L 2584 4666 
Q 3475 4666 3951 4270 
Q 4428 3875 4428 3144 
Q 4428 2409 3951 2014 
Q 3475 1619 2584 1619 
L 1791 1619 
L 1791 0 
L 588 0 
L 588 4666 
z
M 1791 3794 
L 1791 2491 
L 2456 2491 
Q 2806 2491 2997 2661 
Q 3188 2831 3188 3144 
Q 3188 3456 2997 3625 
Q 2806 3794 2456 3794 
L 1791 3794 
z
" transform="scale(0.015625)"/>
      <path id="DejaVuSans-Bold-2f" d="M 588 4666 
L 1791 4666 
L 1791 909 
L 3903 909 
L 3903 0 
L 588 0 
L 588 4666 
z
" transform="scale(0.015625)"/>
      <path id="DejaVuSans-Bold-24" d="M 3419 850 
L 1538 850 
L 1241 0 
L 31 0 
L 1759 4666 
L 3194 4666 
L 4922 0 
L 3713 0 
L 3419 850 
z
M 1838 1716 
L 3116 1716 
L 2478 3572 
L 1838 1716 
z
" transform="scale(0.015625)"/>
      <path id="DejaVuSans-Bold-2c" d="M 588 4666 
L 1791 4666 
L 1791 0 
L 588 0 
L 588 4666 
z
" transform="scale(0.015625)"/>
      <path id="DejaVuSans-Bold-31" d="M 588 4666 
L 1931 4666 
L 3628 1466 
L 3628 4666 
L 4769 4666 
L 4769 0 
L 3425 0 
L 1728 3200 
L 1728 0 
L 588 0 
L 588 4666 
z
" transform="scale(0.015625)"/>
      <path id="DejaVuSans-Bold-3" transform="scale(0.015625)"/>
      <path id="DejaVuSans-Bold-af6" d="M 344 2156 
L 6056 2156 
L 6056 1350 
L 344 1350 
L 344 2156 
z
" transform="scale(0.015625)"/>
      <path id="DejaVuSans-Bold-45" d="M 2400 722 
Q 2759 722 2948 984 
Q 3138 1247 3138 1747 
Q 3138 2247 2948 2509 
Q 2759 2772 2400 2772 
Q 2041 2772 1848 2508 
Q 1656 2244 1656 1747 
Q 1656 1250 1848 986 
Q 2041 722 2400 722 
z
M 1656 2988 
Q 1888 3294 2169 3439 
Q 2450 3584 2816 3584 
Q 3463 3584 3878 3070 
Q 4294 2556 4294 1747 
Q 4294 938 3878 423 
Q 3463 -91 2816 -91 
Q 2450 -91 2169 54 
Q 1888 200 1656 506 
L 1656 0 
L 538 0 
L 538 4863 
L 1656 4863 
L 1656 2988 
z
" transform="scale(0.015625)"/>
      <path id="DejaVuSans-Bold-55" d="M 3138 2547 
Q 2991 2616 2845 2648 
Q 2700 2681 2553 2681 
Q 2122 2681 1889 2404 
Q 1656 2128 1656 1613 
L 1656 0 
L 538 0 
L 538 3500 
L 1656 3500 
L 1656 2925 
Q 1872 3269 2151 3426 
Q 2431 3584 2822 3584 
Q 2878 3584 2943 3579 
Q 3009 3575 3134 3559 
L 3138 2547 
z
" transform="scale(0.015625)"/>
      <path id="DejaVuSans-Bold-4c" d="M 538 3500 
L 1656 3500 
L 1656 0 
L 538 0 
L 538 3500 
z
M 538 4863 
L 1656 4863 
L 1656 3950 
L 538 3950 
L 538 4863 
z
" transform="scale(0.015625)"/>
      <path id="DejaVuSans-Bold-48" d="M 4031 1759 
L 4031 1441 
L 1416 1441 
Q 1456 1047 1700 850 
Q 1944 653 2381 653 
Q 2734 653 3104 758 
Q 3475 863 3866 1075 
L 3866 213 
Q 3469 63 3072 -14 
Q 2675 -91 2278 -91 
Q 1328 -91 801 392 
Q 275 875 275 1747 
Q 275 2603 792 3093 
Q 1309 3584 2216 3584 
Q 3041 3584 3536 3087 
Q 4031 2591 4031 1759 
z
M 2881 2131 
Q 2881 2450 2695 2645 
Q 2509 2841 2209 2841 
Q 1884 2841 1681 2658 
Q 1478 2475 1428 2131 
L 2881 2131 
z
" transform="scale(0.015625)"/>
      <path id="DejaVuSans-Bold-49" d="M 2841 4863 
L 2841 4128 
L 2222 4128 
Q 1984 4128 1890 4042 
Q 1797 3956 1797 3744 
L 1797 3500 
L 2753 3500 
L 2753 2700 
L 1797 2700 
L 1797 0 
L 678 0 
L 678 2700 
L 122 2700 
L 122 3500 
L 678 3500 
L 678 3744 
Q 678 4316 997 4589 
Q 1316 4863 1984 4863 
L 2841 4863 
z
" transform="scale(0.015625)"/>
      <path id="DejaVuSans-Bold-56" d="M 3272 3391 
L 3272 2541 
Q 2913 2691 2578 2766 
Q 2244 2841 1947 2841 
Q 1628 2841 1473 2761 
Q 1319 2681 1319 2516 
Q 1319 2381 1436 2309 
Q 1553 2238 1856 2203 
L 2053 2175 
Q 2913 2066 3209 1816 
Q 3506 1566 3506 1031 
Q 3506 472 3093 190 
Q 2681 -91 1863 -91 
Q 1516 -91 1145 -36 
Q 775 19 384 128 
L 384 978 
Q 719 816 1070 734 
Q 1422 653 1784 653 
Q 2113 653 2278 743 
Q 2444 834 2444 1013 
Q 2444 1163 2330 1236 
Q 2216 1309 1875 1350 
L 1678 1375 
Q 931 1469 631 1722 
Q 331 1975 331 2491 
Q 331 3047 712 3315 
Q 1094 3584 1881 3584 
Q 2191 3584 2531 3537 
Q 2872 3491 3272 3391 
z
" transform="scale(0.015625)"/>
      <path id="DejaVuSans-Bold-57" d="M 1759 4494 
L 1759 3500 
L 2913 3500 
L 2913 2700 
L 1759 2700 
L 1759 1216 
Q 1759 972 1856 886 
Q 1953 800 2241 800 
L 2816 800 
L 2816 0 
L 1856 0 
Q 1194 0 917 276 
Q 641 553 641 1216 
L 641 2700 
L 84 2700 
L 84 3500 
L 641 3500 
L 641 4494 
L 1759 4494 
z
" transform="scale(0.015625)"/>
      <path id="DejaVuSans-Bold-44" d="M 2106 1575 
Q 1756 1575 1579 1456 
Q 1403 1338 1403 1106 
Q 1403 894 1545 773 
Q 1688 653 1941 653 
Q 2256 653 2472 879 
Q 2688 1106 2688 1447 
L 2688 1575 
L 2106 1575 
z
M 3816 1997 
L 3816 0 
L 2688 0 
L 2688 519 
Q 2463 200 2181 54 
Q 1900 -91 1497 -91 
Q 953 -91 614 226 
Q 275 544 275 1050 
Q 275 1666 698 1953 
Q 1122 2241 2028 2241 
L 2688 2241 
L 2688 2328 
Q 2688 2594 2478 2717 
Q 2269 2841 1825 2841 
Q 1466 2841 1156 2769 
Q 847 2697 581 2553 
L 581 3406 
Q 941 3494 1303 3539 
Q 1666 3584 2028 3584 
Q 2975 3584 3395 3211 
Q 3816 2838 3816 1997 
z
" transform="scale(0.015625)"/>
      <path id="DejaVuSans-Bold-51" d="M 4056 2131 
L 4056 0 
L 2931 0 
L 2931 347 
L 2931 1631 
Q 2931 2084 2911 2256 
Q 2891 2428 2841 2509 
Q 2775 2619 2662 2680 
Q 2550 2741 2406 2741 
Q 2056 2741 1856 2470 
Q 1656 2200 1656 1722 
L 1656 0 
L 538 0 
L 538 3500 
L 1656 3500 
L 1656 2988 
Q 1909 3294 2193 3439 
Q 2478 3584 2822 3584 
Q 3428 3584 3742 3212 
Q 4056 2841 4056 2131 
z
" transform="scale(0.015625)"/>
      <path id="DejaVuSans-Bold-47" d="M 2919 2988 
L 2919 4863 
L 4044 4863 
L 4044 0 
L 2919 0 
L 2919 506 
Q 2688 197 2409 53 
Q 2131 -91 1766 -91 
Q 1119 -91 703 423 
Q 288 938 288 1747 
Q 288 2556 703 3070 
Q 1119 3584 1766 3584 
Q 2128 3584 2408 3439 
Q 2688 3294 2919 2988 
z
M 2181 722 
Q 2541 722 2730 984 
Q 2919 1247 2919 1747 
Q 2919 2247 2730 2509 
Q 2541 2772 2181 2772 
Q 1825 2772 1636 2509 
Q 1447 2247 1447 1747 
Q 1447 1247 1636 984 
Q 1825 722 2181 722 
z
" transform="scale(0.015625)"/>
      <path id="DejaVuSans-Bold-4a" d="M 2919 594 
Q 2688 288 2409 144 
Q 2131 0 1766 0 
Q 1125 0 706 504 
Q 288 1009 288 1791 
Q 288 2575 706 3076 
Q 1125 3578 1766 3578 
Q 2131 3578 2409 3434 
Q 2688 3291 2919 2981 
L 2919 3500 
L 4044 3500 
L 4044 353 
Q 4044 -491 3511 -936 
Q 2978 -1381 1966 -1381 
Q 1638 -1381 1331 -1331 
Q 1025 -1281 716 -1178 
L 716 -306 
Q 1009 -475 1290 -558 
Q 1572 -641 1856 -641 
Q 2406 -641 2662 -400 
Q 2919 -159 2919 353 
L 2919 594 
z
M 2181 2772 
Q 1834 2772 1640 2515 
Q 1447 2259 1447 1791 
Q 1447 1309 1634 1061 
Q 1822 813 2181 813 
Q 2531 813 2725 1069 
Q 2919 1325 2919 1791 
Q 2919 2259 2725 2515 
Q 2531 2772 2181 2772 
z
" transform="scale(0.015625)"/>
      <path id="DejaVuSans-Bold-4b" d="M 4056 2131 
L 4056 0 
L 2931 0 
L 2931 347 
L 2931 1625 
Q 2931 2084 2911 2256 
Q 2891 2428 2841 2509 
Q 2775 2619 2662 2680 
Q 2550 2741 2406 2741 
Q 2056 2741 1856 2470 
Q 1656 2200 1656 1722 
L 1656 0 
L 538 0 
L 538 4863 
L 1656 4863 
L 1656 2988 
Q 1909 3294 2193 3439 
Q 2478 3584 2822 3584 
Q 3428 3584 3742 3212 
Q 4056 2841 4056 2131 
z
" transform="scale(0.015625)"/>
      <path id="DejaVuSans-Bold-53" d="M 1656 506 
L 1656 -1331 
L 538 -1331 
L 538 3500 
L 1656 3500 
L 1656 2988 
Q 1888 3294 2169 3439 
Q 2450 3584 2816 3584 
Q 3463 3584 3878 3070 
Q 4294 2556 4294 1747 
Q 4294 938 3878 423 
Q 3463 -91 2816 -91 
Q 2450 -91 2169 54 
Q 1888 200 1656 506 
z
M 2400 2772 
Q 2041 2772 1848 2508 
Q 1656 2244 1656 1747 
Q 1656 1250 1848 986 
Q 2041 722 2400 722 
Q 2759 722 2948 984 
Q 3138 1247 3138 1747 
Q 3138 2247 2948 2509 
Q 2759 2772 2400 2772 
z
" transform="scale(0.015625)"/>
      <path id="DejaVuSans-Bold-52" d="M 2203 2784 
Q 1831 2784 1636 2517 
Q 1441 2250 1441 1747 
Q 1441 1244 1636 976 
Q 1831 709 2203 709 
Q 2569 709 2762 976 
Q 2956 1244 2956 1747 
Q 2956 2250 2762 2517 
Q 2569 2784 2203 2784 
z
M 2203 3584 
Q 3106 3584 3614 3096 
Q 4122 2609 4122 1747 
Q 4122 884 3614 396 
Q 3106 -91 2203 -91 
Q 1297 -91 786 396 
Q 275 884 275 1747 
Q 275 2609 786 3096 
Q 1297 3584 2203 3584 
z
" transform="scale(0.015625)"/>
      <path id="DejaVuSans-Bold-4f" d="M 538 4863 
L 1656 4863 
L 1656 0 
L 538 0 
L 538 4863 
z
" transform="scale(0.015625)"/>
      <path id="DejaVuSans-Bold-46" d="M 3366 3391 
L 3366 2478 
Q 3138 2634 2908 2709 
Q 2678 2784 2431 2784 
Q 1963 2784 1702 2511 
Q 1441 2238 1441 1747 
Q 1441 1256 1702 982 
Q 1963 709 2431 709 
Q 2694 709 2930 787 
Q 3166 866 3366 1019 
L 3366 103 
Q 3103 6 2833 -42 
Q 2563 -91 2291 -91 
Q 1344 -91 809 395 
Q 275 881 275 1747 
Q 275 2613 809 3098 
Q 1344 3584 2291 3584 
Q 2566 3584 2833 3536 
Q 3100 3488 3366 3391 
z
" transform="scale(0.015625)"/>
      <path id="DejaVuSans-Bold-5c" d="M 78 3500 
L 1197 3500 
L 2138 1125 
L 2938 3500 
L 4056 3500 
L 2584 -331 
Q 2363 -916 2067 -1148 
Q 1772 -1381 1288 -1381 
L 641 -1381 
L 641 -647 
L 991 -647 
Q 1275 -647 1404 -556 
Q 1534 -466 1606 -231 
L 1638 -134 
L 78 3500 
z
" transform="scale(0.015625)"/>
     </defs>
     <use xlink:href="#DejaVuSans-Bold-28"/>
     <use xlink:href="#DejaVuSans-Bold-3b" transform="translate(68.3125 0)"/>
     <use xlink:href="#DejaVuSans-Bold-33" transform="translate(145.40625 0)"/>
     <use xlink:href="#DejaVuSans-Bold-2f" transform="translate(218.703125 0)"/>
     <use xlink:href="#DejaVuSans-Bold-24" transform="translate(282.421875 0)"/>
     <use xlink:href="#DejaVuSans-Bold-2c" transform="translate(359.8125 0)"/>
     <use xlink:href="#DejaVuSans-Bold-31" transform="translate(397.015625 0)"/>
     <use xlink:href="#DejaVuSans-Bold-3" transform="translate(480.703125 0)"/>
     <use xlink:href="#DejaVuSans-Bold-3" transform="translate(515.515625 0)"/>
     <use xlink:href="#DejaVuSans-Bold-af6" transform="translate(550.328125 0)"/>
     <use xlink:href="#DejaVuSans-Bold-3" transform="translate(650.328125 0)"/>
     <use xlink:href="#DejaVuSans-Bold-3" transform="translate(685.140625 0)"/>
     <use xlink:href="#DejaVuSans-Bold-45" transform="translate(719.953125 0)"/>
     <use xlink:href="#DejaVuSans-Bold-55" transform="translate(791.53125 0)"/>
     <use xlink:href="#DejaVuSans-Bold-4c" transform="translate(840.84375 0)"/>
     <use xlink:href="#DejaVuSans-Bold-48" transform="translate(875.125 0)"/>
     <use xlink:href="#DejaVuSans-Bold-49" transform="translate(942.953125 0)"/>
     <use xlink:href="#DejaVuSans-Bold-56" transform="translate(986.453125 0)"/>
     <use xlink:href="#DejaVuSans-Bold-3" transform="translate(1045.96875 0)"/>
     <use xlink:href="#DejaVuSans-Bold-57" transform="translate(1080.78125 0)"/>
     <use xlink:href="#DejaVuSans-Bold-55" transform="translate(1128.578125 0)"/>
     <use xlink:href="#DejaVuSans-Bold-44" transform="translate(1177.890625 0)"/>
     <use xlink:href="#DejaVuSans-Bold-4c" transform="translate(1245.375 0)"/>
     <use xlink:href="#DejaVuSans-Bold-51" transform="translate(1279.65625 0)"/>
     <use xlink:href="#DejaVuSans-Bold-48" transform="translate(1350.84375 0)"/>
     <use xlink:href="#DejaVuSans-Bold-47" transform="translate(1418.671875 0)"/>
     <use xlink:href="#DejaVuSans-Bold-3" transform="translate(1490.25 0)"/>
     <use xlink:href="#DejaVuSans-Bold-44" transform="translate(1525.0625 0)"/>
     <use xlink:href="#DejaVuSans-Bold-4a" transform="translate(1592.546875 0)"/>
     <use xlink:href="#DejaVuSans-Bold-44" transform="translate(1664.125 0)"/>
     <use xlink:href="#DejaVuSans-Bold-4c" transform="translate(1731.609375 0)"/>
     <use xlink:href="#DejaVuSans-Bold-51" transform="translate(1765.890625 0)"/>
     <use xlink:href="#DejaVuSans-Bold-56" transform="translate(1837.078125 0)"/>
     <use xlink:href="#DejaVuSans-Bold-57" transform="translate(1896.59375 0)"/>
     <use xlink:href="#DejaVuSans-Bold-3" transform="translate(1944.390625 0)"/>
     <use xlink:href="#DejaVuSans-Bold-57" transform="translate(1979.203125 0)"/>
     <use xlink:href="#DejaVuSans-Bold-4b" transform="translate(2027 0)"/>
     <use xlink:href="#DejaVuSans-Bold-48" transform="translate(2098.1875 0)"/>
     <use xlink:href="#DejaVuSans-Bold-3" transform="translate(2166.015625 0)"/>
     <use xlink:href="#DejaVuSans-Bold-53" transform="translate(2200.828125 0)"/>
     <use xlink:href="#DejaVuSans-Bold-52" transform="translate(2272.40625 0)"/>
     <use xlink:href="#DejaVuSans-Bold-4f" transform="translate(2341.109375 0)"/>
     <use xlink:href="#DejaVuSans-Bold-4c" transform="translate(2375.390625 0)"/>
     <use xlink:href="#DejaVuSans-Bold-46" transform="translate(2409.671875 0)"/>
     <use xlink:href="#DejaVuSans-Bold-5c" transform="translate(2468.953125 0)"/>
    </g>
   </g>
   <g id="text_2">
    <!-- condition -->
    <g style="fill: #222222" transform="translate(47.096133 111.383149) scale(0.105 -0.105)">
     <defs>
      <path id="DejaVuSans-46" d="M 3122 3366 
L 3122 2828 
Q 2878 2963 2633 3030 
Q 2388 3097 2138 3097 
Q 1578 3097 1268 2742 
Q 959 2388 959 1747 
Q 959 1106 1268 751 
Q 1578 397 2138 397 
Q 2388 397 2633 464 
Q 2878 531 3122 666 
L 3122 134 
Q 2881 22 2623 -34 
Q 2366 -91 2075 -91 
Q 1284 -91 818 406 
Q 353 903 353 1747 
Q 353 2603 823 3093 
Q 1294 3584 2113 3584 
Q 2378 3584 2631 3529 
Q 2884 3475 3122 3366 
z
" transform="scale(0.015625)"/>
      <path id="DejaVuSans-52" d="M 1959 3097 
Q 1497 3097 1228 2736 
Q 959 2375 959 1747 
Q 959 1119 1226 758 
Q 1494 397 1959 397 
Q 2419 397 2687 759 
Q 2956 1122 2956 1747 
Q 2956 2369 2687 2733 
Q 2419 3097 1959 3097 
z
M 1959 3584 
Q 2709 3584 3137 3096 
Q 3566 2609 3566 1747 
Q 3566 888 3137 398 
Q 2709 -91 1959 -91 
Q 1206 -91 779 398 
Q 353 888 353 1747 
Q 353 2609 779 3096 
Q 1206 3584 1959 3584 
z
" transform="scale(0.015625)"/>
      <path id="DejaVuSans-51" d="M 3513 2113 
L 3513 0 
L 2938 0 
L 2938 2094 
Q 2938 2591 2744 2837 
Q 2550 3084 2163 3084 
Q 1697 3084 1428 2787 
Q 1159 2491 1159 1978 
L 1159 0 
L 581 0 
L 581 3500 
L 1159 3500 
L 1159 2956 
Q 1366 3272 1645 3428 
Q 1925 3584 2291 3584 
Q 2894 3584 3203 3211 
Q 3513 2838 3513 2113 
z
" transform="scale(0.015625)"/>
      <path id="DejaVuSans-47" d="M 2906 2969 
L 2906 4863 
L 3481 4863 
L 3481 0 
L 2906 0 
L 2906 525 
Q 2725 213 2448 61 
Q 2172 -91 1784 -91 
Q 1150 -91 751 415 
Q 353 922 353 1747 
Q 353 2572 751 3078 
Q 1150 3584 1784 3584 
Q 2172 3584 2448 3432 
Q 2725 3281 2906 2969 
z
M 947 1747 
Q 947 1113 1208 752 
Q 1469 391 1925 391 
Q 2381 391 2643 752 
Q 2906 1113 2906 1747 
Q 2906 2381 2643 2742 
Q 2381 3103 1925 3103 
Q 1469 3103 1208 2742 
Q 947 2381 947 1747 
z
" transform="scale(0.015625)"/>
      <path id="DejaVuSans-4c" d="M 603 3500 
L 1178 3500 
L 1178 0 
L 603 0 
L 603 3500 
z
M 603 4863 
L 1178 4863 
L 1178 4134 
L 603 4134 
L 603 4863 
z
" transform="scale(0.015625)"/>
      <path id="DejaVuSans-57" d="M 1172 4494 
L 1172 3500 
L 2356 3500 
L 2356 3053 
L 1172 3053 
L 1172 1153 
Q 1172 725 1289 603 
Q 1406 481 1766 481 
L 2356 481 
L 2356 0 
L 1766 0 
Q 1100 0 847 248 
Q 594 497 594 1153 
L 594 3053 
L 172 3053 
L 172 3500 
L 594 3500 
L 594 4494 
L 1172 4494 
z
" transform="scale(0.015625)"/>
     </defs>
     <use xlink:href="#DejaVuSans-46"/>
     <use xlink:href="#DejaVuSans-52" transform="translate(54.984375 0)"/>
     <use xlink:href="#DejaVuSans-51" transform="translate(116.171875 0)"/>
     <use xlink:href="#DejaVuSans-47" transform="translate(179.546875 0)"/>
     <use xlink:href="#DejaVuSans-4c" transform="translate(243.03125 0)"/>
     <use xlink:href="#DejaVuSans-57" transform="translate(270.8125 0)"/>
     <use xlink:href="#DejaVuSans-4c" transform="translate(310.015625 0)"/>
     <use xlink:href="#DejaVuSans-52" transform="translate(337.796875 0)"/>
     <use xlink:href="#DejaVuSans-51" transform="translate(398.984375 0)"/>
    </g>
   </g>
   <g id="text_3">
    <!-- $\hat z_t,\ a_t,\ \lambda,\ c_t$ -->
    <g style="fill: #666666" transform="translate(48.3775 127.495208) scale(0.085 -0.085)">
     <defs>
      <path id="Cmr10-7c" d="M 863 3444 
L 738 3578 
L 1600 4441 
L 2456 3578 
L 2328 3444 
L 1600 4084 
L 863 3444 
z
" transform="scale(0.015625)"/>
      <path id="Cmmi10-46" d="M 313 -72 
Q 263 -72 263 -13 
Q 263 19 275 31 
Q 447 328 689 598 
Q 931 869 1239 1145 
Q 1547 1422 1858 1700 
Q 2169 1978 2363 2194 
L 2338 2194 
Q 2197 2194 1925 2284 
Q 1653 2375 1497 2375 
Q 1328 2375 1168 2301 
Q 1009 2228 966 2075 
Q 956 2028 916 2028 
L 838 2028 
Q 788 2028 788 2094 
L 788 2113 
Q 838 2300 952 2462 
Q 1066 2625 1233 2726 
Q 1400 2828 1581 2828 
Q 1709 2828 1793 2770 
Q 1878 2713 1990 2591 
Q 2103 2469 2173 2416 
Q 2244 2363 2350 2363 
Q 2491 2363 2602 2491 
Q 2713 2619 2822 2809 
Q 2841 2828 2869 2828 
L 2944 2828 
Q 2966 2828 2980 2812 
Q 2994 2797 2994 2772 
Q 2994 2750 2981 2731 
Q 2809 2434 2579 2176 
Q 2350 1919 1979 1586 
Q 1609 1253 1354 1023 
Q 1100 794 878 550 
Q 928 563 1013 563 
Q 1169 563 1439 473 
Q 1709 384 1856 384 
Q 2016 384 2178 453 
Q 2341 522 2459 647 
Q 2578 772 2619 934 
Q 2634 978 2669 978 
L 2747 978 
Q 2772 978 2787 958 
Q 2803 938 2803 916 
Q 2803 909 2797 897 
Q 2738 653 2591 433 
Q 2444 213 2230 70 
Q 2016 -72 1772 -72 
Q 1650 -72 1565 -15 
Q 1481 41 1367 164 
Q 1253 288 1181 342 
Q 1109 397 1006 397 
Q 688 397 434 -50 
Q 413 -72 391 -72 
L 313 -72 
z
" transform="scale(0.015625)"/>
      <path id="Cmmi10-30" d="M 397 519 
Q 397 613 416 697 
L 878 2534 
L 206 2534 
Q 141 2534 141 2619 
Q 166 2759 225 2759 
L 934 2759 
L 1191 3803 
Q 1216 3888 1291 3947 
Q 1366 4006 1459 4006 
Q 1541 4006 1595 3957 
Q 1650 3909 1650 3828 
Q 1650 3809 1648 3798 
Q 1647 3788 1644 3775 
L 1388 2759 
L 2047 2759 
Q 2113 2759 2113 2675 
Q 2109 2659 2100 2621 
Q 2091 2584 2075 2559 
Q 2059 2534 2028 2534 
L 1331 2534 
L 872 684 
Q 825 503 825 372 
Q 825 97 1013 97 
Q 1294 97 1511 361 
Q 1728 625 1844 941 
Q 1869 978 1894 978 
L 1972 978 
Q 1997 978 2012 961 
Q 2028 944 2028 922 
Q 2028 909 2022 903 
Q 1881 516 1612 222 
Q 1344 -72 997 -72 
Q 744 -72 570 93 
Q 397 259 397 519 
z
" transform="scale(0.015625)"/>
      <path id="Cmmi10-2c" d="M 634 -1153 
Q 634 -1125 659 -1100 
Q 891 -878 1019 -587 
Q 1147 -297 1147 25 
L 1147 103 
Q 1044 0 891 0 
Q 744 0 641 103 
Q 538 206 538 353 
Q 538 503 641 603 
Q 744 703 891 703 
Q 1119 703 1216 492 
Q 1313 281 1313 25 
Q 1313 -331 1170 -651 
Q 1028 -972 769 -1228 
Q 744 -1241 728 -1241 
Q 697 -1241 665 -1212 
Q 634 -1184 634 -1153 
z
" transform="scale(0.015625)"/>
      <path id="Cmmi10-79" d="M 1113 -72 
Q 709 -72 476 233 
Q 244 538 244 953 
Q 244 1363 456 1803 
Q 669 2244 1030 2536 
Q 1391 2828 1806 2828 
Q 1997 2828 2147 2725 
Q 2297 2622 2381 2444 
Q 2453 2700 2663 2700 
Q 2744 2700 2798 2651 
Q 2853 2603 2853 2522 
Q 2853 2503 2851 2493 
Q 2850 2484 2847 2472 
L 2400 684 
Q 2356 494 2356 372 
Q 2356 97 2541 97 
Q 2741 97 2845 351 
Q 2950 606 3022 941 
Q 3034 978 3072 978 
L 3150 978 
Q 3175 978 3190 956 
Q 3206 934 3206 916 
Q 3094 469 2961 198 
Q 2828 -72 2528 -72 
Q 2313 -72 2147 54 
Q 1981 181 1941 391 
Q 1528 -72 1113 -72 
z
M 1119 97 
Q 1350 97 1567 270 
Q 1784 444 1941 678 
Q 1947 684 1947 697 
L 2291 2088 
L 2297 2106 
Q 2259 2334 2132 2498 
Q 2006 2663 1791 2663 
Q 1575 2663 1389 2486 
Q 1203 2309 1075 2069 
Q 950 1813 836 1366 
Q 722 919 722 672 
Q 722 450 817 273 
Q 913 97 1119 97 
z
" transform="scale(0.015625)"/>
      <path id="Cmmi10-9" d="M 325 109 
Q 325 203 409 288 
L 2209 2053 
L 1575 3834 
Q 1500 4038 1417 4156 
Q 1334 4275 1178 4275 
Q 1106 4275 1106 4359 
Q 1113 4397 1138 4419 
Q 1163 4441 1203 4441 
Q 1875 4441 2016 4044 
L 3316 416 
Q 3400 144 3488 50 
Q 3519 3 3519 -13 
Q 3519 -72 3469 -72 
L 3122 -72 
Q 2963 -25 2869 206 
L 2284 1844 
L 738 25 
Q 622 -84 531 -84 
Q 450 -84 387 -28 
Q 325 28 325 109 
z
" transform="scale(0.015625)"/>
      <path id="Cmmi10-7f" d="M 750 763 
Q 750 484 892 290 
Q 1034 97 1300 97 
Q 1681 97 2032 272 
Q 2384 447 2606 756 
Q 2625 775 2656 775 
Q 2688 775 2720 739 
Q 2753 703 2753 672 
Q 2753 647 2741 634 
Q 2506 306 2109 117 
Q 1713 -72 1288 -72 
Q 981 -72 747 73 
Q 513 219 384 462 
Q 256 706 256 1013 
Q 256 1444 497 1869 
Q 738 2294 1138 2561 
Q 1538 2828 1978 2828 
Q 2266 2828 2495 2689 
Q 2725 2550 2725 2278 
Q 2725 2103 2623 1979 
Q 2522 1856 2350 1856 
Q 2247 1856 2176 1920 
Q 2106 1984 2106 2088 
Q 2106 2238 2215 2344 
Q 2325 2450 2472 2450 
L 2484 2450 
Q 2409 2559 2267 2611 
Q 2125 2663 1972 2663 
Q 1597 2663 1315 2342 
Q 1034 2022 892 1576 
Q 750 1131 750 763 
z
" transform="scale(0.015625)"/>
     </defs>
     <use xlink:href="#Cmr10-7c" transform="translate(2.136719 3.609375)"/>
     <use xlink:href="#Cmmi10-46" transform="translate(0 0.734375)"/>
     <use xlink:href="#Cmmi10-30" transform="translate(50.488666 -14.265587) scale(0.7)"/>
     <use xlink:href="#Cmmi10-2c" transform="translate(81.46787 0.734375)"/>
     <use xlink:href="#Cmmi10-79" transform="translate(162.48657 0.734375)"/>
     <use xlink:href="#Cmmi10-30" transform="translate(215.269773 -14.265587) scale(0.7)"/>
     <use xlink:href="#Cmmi10-2c" transform="translate(246.248978 0.734375)"/>
     <use xlink:href="#Cmmi10-9" transform="translate(327.267677 0.734375)"/>
     <use xlink:href="#Cmmi10-2c" transform="translate(385.568458 0.734375)"/>
     <use xlink:href="#Cmmi10-7f" transform="translate(466.587158 0.734375)"/>
     <use xlink:href="#Cmmi10-30" transform="translate(509.800048 -14.265587) scale(0.7)"/>
    </g>
   </g>
   <g id="text_4">
    <!-- prefix -->
    <g style="fill: #222222" transform="translate(170.740078 118.035949) scale(0.105 -0.105)">
     <defs>
      <path id="DejaVuSans-53" d="M 1159 525 
L 1159 -1331 
L 581 -1331 
L 581 3500 
L 1159 3500 
L 1159 2969 
Q 1341 3281 1617 3432 
Q 1894 3584 2278 3584 
Q 2916 3584 3314 3078 
Q 3713 2572 3713 1747 
Q 3713 922 3314 415 
Q 2916 -91 2278 -91 
Q 1894 -91 1617 61 
Q 1341 213 1159 525 
z
M 3116 1747 
Q 3116 2381 2855 2742 
Q 2594 3103 2138 3103 
Q 1681 3103 1420 2742 
Q 1159 2381 1159 1747 
Q 1159 1113 1420 752 
Q 1681 391 2138 391 
Q 2594 391 2855 752 
Q 3116 1113 3116 1747 
z
" transform="scale(0.015625)"/>
      <path id="DejaVuSans-55" d="M 2631 2963 
Q 2534 3019 2420 3045 
Q 2306 3072 2169 3072 
Q 1681 3072 1420 2755 
Q 1159 2438 1159 1844 
L 1159 0 
L 581 0 
L 581 3500 
L 1159 3500 
L 1159 2956 
Q 1341 3275 1631 3429 
Q 1922 3584 2338 3584 
Q 2397 3584 2469 3576 
Q 2541 3569 2628 3553 
L 2631 2963 
z
" transform="scale(0.015625)"/>
      <path id="DejaVuSans-48" d="M 3597 1894 
L 3597 1613 
L 953 1613 
Q 991 1019 1311 708 
Q 1631 397 2203 397 
Q 2534 397 2845 478 
Q 3156 559 3463 722 
L 3463 178 
Q 3153 47 2828 -22 
Q 2503 -91 2169 -91 
Q 1331 -91 842 396 
Q 353 884 353 1716 
Q 353 2575 817 3079 
Q 1281 3584 2069 3584 
Q 2775 3584 3186 3129 
Q 3597 2675 3597 1894 
z
M 3022 2063 
Q 3016 2534 2758 2815 
Q 2500 3097 2075 3097 
Q 1594 3097 1305 2825 
Q 1016 2553 972 2059 
L 3022 2063 
z
" transform="scale(0.015625)"/>
      <path id="DejaVuSans-13af" d="M 3431 3500 
L 3431 0 
L 2853 0 
L 2853 3053 
L 1275 3053 
L 1275 0 
L 697 0 
L 697 3053 
L 147 3053 
L 147 3500 
L 697 3500 
L 697 3744 
Q 697 4316 967 4589 
Q 1238 4863 1797 4863 
L 2375 4863 
L 2375 4384 
L 1825 4384 
Q 1516 4384 1395 4259 
Q 1275 4134 1275 3809 
L 1275 3500 
L 3431 3500 
z
M 2853 4856 
L 3431 4856 
L 3431 4128 
L 2853 4128 
L 2853 4856 
z
" transform="scale(0.015625)"/>
      <path id="DejaVuSans-5b" d="M 3513 3500 
L 2247 1797 
L 3578 0 
L 2900 0 
L 1881 1375 
L 863 0 
L 184 0 
L 1544 1831 
L 300 3500 
L 978 3500 
L 1906 2253 
L 2834 3500 
L 3513 3500 
z
" transform="scale(0.015625)"/>
     </defs>
     <use xlink:href="#DejaVuSans-53"/>
     <use xlink:href="#DejaVuSans-55" transform="translate(63.484375 0)"/>
     <use xlink:href="#DejaVuSans-48" transform="translate(102.390625 0)"/>
     <use xlink:href="#DejaVuSans-13af" transform="translate(163.921875 0)"/>
     <use xlink:href="#DejaVuSans-5b" transform="translate(226.90625 0)"/>
    </g>
   </g>
   <g id="text_5">
    <!-- frozen LM · Qwen2.5-0.5B -->
    <g style="fill: #5b3f85" transform="translate(259.883438 72.6192) scale(0.09 -0.09)">
     <defs>
      <path id="DejaVuSans-Bold-5d" d="M 366 3500 
L 3419 3500 
L 3419 2719 
L 1575 800 
L 3419 800 
L 3419 0 
L 288 0 
L 288 781 
L 2131 2700 
L 366 2700 
L 366 3500 
z
" transform="scale(0.015625)"/>
      <path id="DejaVuSans-Bold-30" d="M 588 4666 
L 2119 4666 
L 3181 2169 
L 4250 4666 
L 5778 4666 
L 5778 0 
L 4641 0 
L 4641 3413 
L 3566 897 
L 2803 897 
L 1728 3413 
L 1728 0 
L 588 0 
L 588 4666 
z
" transform="scale(0.015625)"/>
      <path id="DejaVuSans-Bold-79" d="M 653 2828 
L 1778 2828 
L 1778 1619 
L 653 1619 
L 653 2828 
z
" transform="scale(0.015625)"/>
      <path id="DejaVuSans-Bold-34" d="M 2847 -84 
L 2753 -84 
Q 1600 -84 959 553 
Q 319 1191 319 2328 
Q 319 3463 958 4106 
Q 1597 4750 2719 4750 
Q 3853 4750 4486 4112 
Q 5119 3475 5119 2328 
Q 5119 1541 4783 972 
Q 4447 403 3816 116 
L 4756 -934 
L 3609 -934 
L 2847 -84 
z
M 2719 3878 
Q 2169 3878 1866 3472 
Q 1563 3066 1563 2328 
Q 1563 1578 1859 1179 
Q 2156 781 2719 781 
Q 3272 781 3575 1187 
Q 3878 1594 3878 2328 
Q 3878 3066 3575 3472 
Q 3272 3878 2719 3878 
z
" transform="scale(0.015625)"/>
      <path id="DejaVuSans-Bold-5a" d="M 225 3500 
L 1313 3500 
L 1900 1088 
L 2491 3500 
L 3425 3500 
L 4013 1113 
L 4603 3500 
L 5691 3500 
L 4769 0 
L 3547 0 
L 2956 2406 
L 2369 0 
L 1147 0 
L 225 3500 
z
" transform="scale(0.015625)"/>
      <path id="DejaVuSans-Bold-15" d="M 1844 884 
L 3897 884 
L 3897 0 
L 506 0 
L 506 884 
L 2209 2388 
Q 2438 2594 2547 2791 
Q 2656 2988 2656 3200 
Q 2656 3528 2436 3728 
Q 2216 3928 1850 3928 
Q 1569 3928 1234 3808 
Q 900 3688 519 3450 
L 519 4475 
Q 925 4609 1322 4679 
Q 1719 4750 2100 4750 
Q 2938 4750 3402 4381 
Q 3866 4013 3866 3353 
Q 3866 2972 3669 2642 
Q 3472 2313 2841 1759 
L 1844 884 
z
" transform="scale(0.015625)"/>
      <path id="DejaVuSans-Bold-11" d="M 653 1209 
L 1778 1209 
L 1778 0 
L 653 0 
L 653 1209 
z
" transform="scale(0.015625)"/>
      <path id="DejaVuSans-Bold-18" d="M 678 4666 
L 3669 4666 
L 3669 3781 
L 1638 3781 
L 1638 3059 
Q 1775 3097 1914 3117 
Q 2053 3138 2203 3138 
Q 3056 3138 3531 2711 
Q 4006 2284 4006 1522 
Q 4006 766 3489 337 
Q 2972 -91 2053 -91 
Q 1656 -91 1267 -14 
Q 878 63 494 219 
L 494 1166 
Q 875 947 1217 837 
Q 1559 728 1863 728 
Q 2300 728 2551 942 
Q 2803 1156 2803 1522 
Q 2803 1891 2551 2103 
Q 2300 2316 1863 2316 
Q 1603 2316 1309 2248 
Q 1016 2181 678 2041 
L 678 4666 
z
" transform="scale(0.015625)"/>
      <path id="DejaVuSans-Bold-10" d="M 347 2297 
L 2309 2297 
L 2309 1388 
L 347 1388 
L 347 2297 
z
" transform="scale(0.015625)"/>
      <path id="DejaVuSans-Bold-13" d="M 2944 2338 
Q 2944 3213 2780 3570 
Q 2616 3928 2228 3928 
Q 1841 3928 1675 3570 
Q 1509 3213 1509 2338 
Q 1509 1453 1675 1090 
Q 1841 728 2228 728 
Q 2613 728 2778 1090 
Q 2944 1453 2944 2338 
z
M 4147 2328 
Q 4147 1169 3647 539 
Q 3147 -91 2228 -91 
Q 1306 -91 806 539 
Q 306 1169 306 2328 
Q 306 3491 806 4120 
Q 1306 4750 2228 4750 
Q 3147 4750 3647 4120 
Q 4147 3491 4147 2328 
z
" transform="scale(0.015625)"/>
      <path id="DejaVuSans-Bold-25" d="M 2456 2859 
Q 2741 2859 2887 2984 
Q 3034 3109 3034 3353 
Q 3034 3594 2887 3720 
Q 2741 3847 2456 3847 
L 1791 3847 
L 1791 2859 
L 2456 2859 
z
M 2497 819 
Q 2859 819 3042 972 
Q 3225 1125 3225 1434 
Q 3225 1738 3044 1889 
Q 2863 2041 2497 2041 
L 1791 2041 
L 1791 819 
L 2497 819 
z
M 3616 2497 
Q 4003 2384 4215 2081 
Q 4428 1778 4428 1338 
Q 4428 663 3972 331 
Q 3516 0 2584 0 
L 588 0 
L 588 4666 
L 2394 4666 
Q 3366 4666 3802 4372 
Q 4238 4078 4238 3431 
Q 4238 3091 4078 2852 
Q 3919 2613 3616 2497 
z
" transform="scale(0.015625)"/>
     </defs>
     <use xlink:href="#DejaVuSans-Bold-49"/>
     <use xlink:href="#DejaVuSans-Bold-55" transform="translate(43.5 0)"/>
     <use xlink:href="#DejaVuSans-Bold-52" transform="translate(92.8125 0)"/>
     <use xlink:href="#DejaVuSans-Bold-5d" transform="translate(161.515625 0)"/>
     <use xlink:href="#DejaVuSans-Bold-48" transform="translate(219.71875 0)"/>
     <use xlink:href="#DejaVuSans-Bold-51" transform="translate(287.546875 0)"/>
     <use xlink:href="#DejaVuSans-Bold-3" transform="translate(358.734375 0)"/>
     <use xlink:href="#DejaVuSans-Bold-2f" transform="translate(393.546875 0)"/>
     <use xlink:href="#DejaVuSans-Bold-30" transform="translate(457.265625 0)"/>
     <use xlink:href="#DejaVuSans-Bold-3" transform="translate(556.78125 0)"/>
     <use xlink:href="#DejaVuSans-Bold-79" transform="translate(591.59375 0)"/>
     <use xlink:href="#DejaVuSans-Bold-3" transform="translate(629.578125 0)"/>
     <use xlink:href="#DejaVuSans-Bold-34" transform="translate(664.390625 0)"/>
     <use xlink:href="#DejaVuSans-Bold-5a" transform="translate(749.40625 0)"/>
     <use xlink:href="#DejaVuSans-Bold-48" transform="translate(841.796875 0)"/>
     <use xlink:href="#DejaVuSans-Bold-51" transform="translate(909.625 0)"/>
     <use xlink:href="#DejaVuSans-Bold-15" transform="translate(980.8125 0)"/>
     <use xlink:href="#DejaVuSans-Bold-11" transform="translate(1050.390625 0)"/>
     <use xlink:href="#DejaVuSans-Bold-18" transform="translate(1088.375 0)"/>
     <use xlink:href="#DejaVuSans-Bold-10" transform="translate(1157.953125 0)"/>
     <use xlink:href="#DejaVuSans-Bold-13" transform="translate(1199.453125 0)"/>
     <use xlink:href="#DejaVuSans-Bold-11" transform="translate(1269.03125 0)"/>
     <use xlink:href="#DejaVuSans-Bold-18" transform="translate(1307.015625 0)"/>
     <use xlink:href="#DejaVuSans-Bold-25" transform="translate(1376.59375 0)"/>
    </g>
   </g>
   <g id="text_6">
    <!-- layers 1–12 -->
    <g style="fill: #222222" transform="translate(272.895273 110.58634) scale(0.085 -0.085)">
     <defs>
      <path id="DejaVuSans-4f" d="M 603 4863 
L 1178 4863 
L 1178 0 
L 603 0 
L 603 4863 
z
" transform="scale(0.015625)"/>
      <path id="DejaVuSans-44" d="M 2194 1759 
Q 1497 1759 1228 1600 
Q 959 1441 959 1056 
Q 959 750 1161 570 
Q 1363 391 1709 391 
Q 2188 391 2477 730 
Q 2766 1069 2766 1631 
L 2766 1759 
L 2194 1759 
z
M 3341 1997 
L 3341 0 
L 2766 0 
L 2766 531 
Q 2569 213 2275 61 
Q 1981 -91 1556 -91 
Q 1019 -91 701 211 
Q 384 513 384 1019 
Q 384 1609 779 1909 
Q 1175 2209 1959 2209 
L 2766 2209 
L 2766 2266 
Q 2766 2663 2505 2880 
Q 2244 3097 1772 3097 
Q 1472 3097 1187 3025 
Q 903 2953 641 2809 
L 641 3341 
Q 956 3463 1253 3523 
Q 1550 3584 1831 3584 
Q 2591 3584 2966 3190 
Q 3341 2797 3341 1997 
z
" transform="scale(0.015625)"/>
      <path id="DejaVuSans-5c" d="M 2059 -325 
Q 1816 -950 1584 -1140 
Q 1353 -1331 966 -1331 
L 506 -1331 
L 506 -850 
L 844 -850 
Q 1081 -850 1212 -737 
Q 1344 -625 1503 -206 
L 1606 56 
L 191 3500 
L 800 3500 
L 1894 763 
L 2988 3500 
L 3597 3500 
L 2059 -325 
z
" transform="scale(0.015625)"/>
      <path id="DejaVuSans-56" d="M 2834 3397 
L 2834 2853 
Q 2591 2978 2328 3040 
Q 2066 3103 1784 3103 
Q 1356 3103 1142 2972 
Q 928 2841 928 2578 
Q 928 2378 1081 2264 
Q 1234 2150 1697 2047 
L 1894 2003 
Q 2506 1872 2764 1633 
Q 3022 1394 3022 966 
Q 3022 478 2636 193 
Q 2250 -91 1575 -91 
Q 1294 -91 989 -36 
Q 684 19 347 128 
L 347 722 
Q 666 556 975 473 
Q 1284 391 1588 391 
Q 1994 391 2212 530 
Q 2431 669 2431 922 
Q 2431 1156 2273 1281 
Q 2116 1406 1581 1522 
L 1381 1569 
Q 847 1681 609 1914 
Q 372 2147 372 2553 
Q 372 3047 722 3315 
Q 1072 3584 1716 3584 
Q 2034 3584 2315 3537 
Q 2597 3491 2834 3397 
z
" transform="scale(0.015625)"/>
      <path id="DejaVuSans-3" transform="scale(0.015625)"/>
      <path id="DejaVuSans-14" d="M 794 531 
L 1825 531 
L 1825 4091 
L 703 3866 
L 703 4441 
L 1819 4666 
L 2450 4666 
L 2450 531 
L 3481 531 
L 3481 0 
L 794 0 
L 794 531 
z
" transform="scale(0.015625)"/>
      <path id="DejaVuSans-af5" d="M 313 1978 
L 2888 1978 
L 2888 1528 
L 313 1528 
L 313 1978 
z
" transform="scale(0.015625)"/>
      <path id="DejaVuSans-15" d="M 1228 531 
L 3431 531 
L 3431 0 
L 469 0 
L 469 531 
Q 828 903 1448 1529 
Q 2069 2156 2228 2338 
Q 2531 2678 2651 2914 
Q 2772 3150 2772 3378 
Q 2772 3750 2511 3984 
Q 2250 4219 1831 4219 
Q 1534 4219 1204 4116 
Q 875 4013 500 3803 
L 500 4441 
Q 881 4594 1212 4672 
Q 1544 4750 1819 4750 
Q 2544 4750 2975 4387 
Q 3406 4025 3406 3419 
Q 3406 3131 3298 2873 
Q 3191 2616 2906 2266 
Q 2828 2175 2409 1742 
Q 1991 1309 1228 531 
z
" transform="scale(0.015625)"/>
     </defs>
     <use xlink:href="#DejaVuSans-4f"/>
     <use xlink:href="#DejaVuSans-44" transform="translate(27.78125 0)"/>
     <use xlink:href="#DejaVuSans-5c" transform="translate(89.0625 0)"/>
     <use xlink:href="#DejaVuSans-48" transform="translate(148.25 0)"/>
     <use xlink:href="#DejaVuSans-55" transform="translate(209.78125 0)"/>
     <use xlink:href="#DejaVuSans-56" transform="translate(250.890625 0)"/>
     <use xlink:href="#DejaVuSans-3" transform="translate(302.984375 0)"/>
     <use xlink:href="#DejaVuSans-14" transform="translate(334.765625 0)"/>
     <use xlink:href="#DejaVuSans-af5" transform="translate(398.390625 0)"/>
     <use xlink:href="#DejaVuSans-14" transform="translate(448.390625 0)"/>
     <use xlink:href="#DejaVuSans-15" transform="translate(512.015625 0)"/>
    </g>
   </g>
   <g id="text_7">
    <!-- LoRA -->
    <g style="fill: #222222" transform="translate(353.115 110.715891) scale(0.09 -0.09)">
     <defs>
      <path id="DejaVuSans-2f" d="M 628 4666 
L 1259 4666 
L 1259 531 
L 3531 531 
L 3531 0 
L 628 0 
L 628 4666 
z
" transform="scale(0.015625)"/>
      <path id="DejaVuSans-35" d="M 2841 2188 
Q 3044 2119 3236 1894 
Q 3428 1669 3622 1275 
L 4263 0 
L 3584 0 
L 2988 1197 
Q 2756 1666 2539 1819 
Q 2322 1972 1947 1972 
L 1259 1972 
L 1259 0 
L 628 0 
L 628 4666 
L 2053 4666 
Q 2853 4666 3247 4331 
Q 3641 3997 3641 3322 
Q 3641 2881 3436 2590 
Q 3231 2300 2841 2188 
z
M 1259 4147 
L 1259 2491 
L 2053 2491 
Q 2509 2491 2742 2702 
Q 2975 2913 2975 3322 
Q 2975 3731 2742 3939 
Q 2509 4147 2053 4147 
L 1259 4147 
z
" transform="scale(0.015625)"/>
      <path id="DejaVuSans-24" d="M 2188 4044 
L 1331 1722 
L 3047 1722 
L 2188 4044 
z
M 1831 4666 
L 2547 4666 
L 4325 0 
L 3669 0 
L 3244 1197 
L 1141 1197 
L 716 0 
L 50 0 
L 1831 4666 
z
" transform="scale(0.015625)"/>
     </defs>
     <use xlink:href="#DejaVuSans-2f"/>
     <use xlink:href="#DejaVuSans-52" transform="translate(53.96875 0)"/>
     <use xlink:href="#DejaVuSans-35" transform="translate(115.15625 0)"/>
     <use xlink:href="#DejaVuSans-24" transform="translate(180.59375 0)"/>
    </g>
   </g>
   <g id="text_8">
    <!-- layers 13–24 -->
    <g style="fill: #222222" transform="translate(270.191211 143.85034) scale(0.085 -0.085)">
     <defs>
      <path id="DejaVuSans-16" d="M 2597 2516 
Q 3050 2419 3304 2112 
Q 3559 1806 3559 1356 
Q 3559 666 3084 287 
Q 2609 -91 1734 -91 
Q 1441 -91 1130 -33 
Q 819 25 488 141 
L 488 750 
Q 750 597 1062 519 
Q 1375 441 1716 441 
Q 2309 441 2620 675 
Q 2931 909 2931 1356 
Q 2931 1769 2642 2001 
Q 2353 2234 1838 2234 
L 1294 2234 
L 1294 2753 
L 1863 2753 
Q 2328 2753 2575 2939 
Q 2822 3125 2822 3475 
Q 2822 3834 2567 4026 
Q 2313 4219 1838 4219 
Q 1578 4219 1281 4162 
Q 984 4106 628 3988 
L 628 4550 
Q 988 4650 1302 4700 
Q 1616 4750 1894 4750 
Q 2613 4750 3031 4423 
Q 3450 4097 3450 3541 
Q 3450 3153 3228 2886 
Q 3006 2619 2597 2516 
z
" transform="scale(0.015625)"/>
      <path id="DejaVuSans-17" d="M 2419 4116 
L 825 1625 
L 2419 1625 
L 2419 4116 
z
M 2253 4666 
L 3047 4666 
L 3047 1625 
L 3713 1625 
L 3713 1100 
L 3047 1100 
L 3047 0 
L 2419 0 
L 2419 1100 
L 313 1100 
L 313 1709 
L 2253 4666 
z
" transform="scale(0.015625)"/>
     </defs>
     <use xlink:href="#DejaVuSans-4f"/>
     <use xlink:href="#DejaVuSans-44" transform="translate(27.78125 0)"/>
     <use xlink:href="#DejaVuSans-5c" transform="translate(89.0625 0)"/>
     <use xlink:href="#DejaVuSans-48" transform="translate(148.25 0)"/>
     <use xlink:href="#DejaVuSans-55" transform="translate(209.78125 0)"/>
     <use xlink:href="#DejaVuSans-56" transform="translate(250.890625 0)"/>
     <use xlink:href="#DejaVuSans-3" transform="translate(302.984375 0)"/>
     <use xlink:href="#DejaVuSans-14" transform="translate(334.765625 0)"/>
     <use xlink:href="#DejaVuSans-16" transform="translate(398.390625 0)"/>
     <use xlink:href="#DejaVuSans-af5" transform="translate(462.015625 0)"/>
     <use xlink:href="#DejaVuSans-15" transform="translate(512.015625 0)"/>
     <use xlink:href="#DejaVuSans-17" transform="translate(575.640625 0)"/>
    </g>
   </g>
   <g id="text_9">
    <!-- LoRA -->
    <g style="fill: #222222" transform="translate(353.115 143.979891) scale(0.09 -0.09)">
     <use xlink:href="#DejaVuSans-2f"/>
     <use xlink:href="#DejaVuSans-52" transform="translate(53.96875 0)"/>
     <use xlink:href="#DejaVuSans-35" transform="translate(115.15625 0)"/>
     <use xlink:href="#DejaVuSans-24" transform="translate(180.59375 0)"/>
    </g>
   </g>
   <g id="text_10">
    <!-- brief $b_t$ -->
    <g style="fill: #222222" transform="translate(454.705 118.166711) scale(0.11 -0.11)">
     <defs>
      <path id="DejaVuSans-45" d="M 3116 1747 
Q 3116 2381 2855 2742 
Q 2594 3103 2138 3103 
Q 1681 3103 1420 2742 
Q 1159 2381 1159 1747 
Q 1159 1113 1420 752 
Q 1681 391 2138 391 
Q 2594 391 2855 752 
Q 3116 1113 3116 1747 
z
M 1159 2969 
Q 1341 3281 1617 3432 
Q 1894 3584 2278 3584 
Q 2916 3584 3314 3078 
Q 3713 2572 3713 1747 
Q 3713 922 3314 415 
Q 2916 -91 2278 -91 
Q 1894 -91 1617 61 
Q 1341 213 1159 525 
L 1159 0 
L 581 0 
L 581 4863 
L 1159 4863 
L 1159 2969 
z
" transform="scale(0.015625)"/>
      <path id="DejaVuSans-49" d="M 2375 4863 
L 2375 4384 
L 1825 4384 
Q 1516 4384 1395 4259 
Q 1275 4134 1275 3809 
L 1275 3500 
L 2222 3500 
L 2222 3053 
L 1275 3053 
L 1275 0 
L 697 0 
L 697 3053 
L 147 3053 
L 147 3500 
L 697 3500 
L 697 3744 
Q 697 4328 969 4595 
Q 1241 4863 1831 4863 
L 2375 4863 
z
" transform="scale(0.015625)"/>
      <path id="Cmmi10-4b" d="M 1106 -72 
Q 719 -72 503 231 
Q 288 534 288 941 
Q 288 1000 317 1173 
Q 347 1347 347 1388 
L 966 3872 
Q 991 3981 997 4044 
Q 997 4147 581 4147 
Q 519 4147 519 4231 
Q 522 4247 533 4287 
Q 544 4328 561 4350 
Q 578 4372 609 4372 
L 1472 4441 
Q 1550 4441 1550 4359 
L 1075 2472 
Q 1438 2828 1806 2828 
Q 2078 2828 2273 2684 
Q 2469 2541 2566 2306 
Q 2663 2072 2663 1806 
Q 2663 1497 2542 1167 
Q 2422 838 2209 555 
Q 1997 272 1712 100 
Q 1428 -72 1106 -72 
z
M 1119 97 
Q 1338 97 1528 280 
Q 1719 463 1838 691 
Q 1966 947 2077 1386 
Q 2188 1825 2188 2088 
Q 2188 2316 2092 2489 
Q 1997 2663 1791 2663 
Q 1559 2663 1348 2492 
Q 1138 2322 978 2088 
L 800 1363 
Q 697 959 691 716 
Q 691 475 795 286 
Q 900 97 1119 97 
z
" transform="scale(0.015625)"/>
     </defs>
     <use xlink:href="#DejaVuSans-45" transform="translate(0 0.015625)"/>
     <use xlink:href="#DejaVuSans-55" transform="translate(63.476562 0.015625)"/>
     <use xlink:href="#DejaVuSans-4c" transform="translate(104.589844 0.015625)"/>
     <use xlink:href="#DejaVuSans-48" transform="translate(132.373047 0.015625)"/>
     <use xlink:href="#DejaVuSans-49" transform="translate(193.896484 0.015625)"/>
     <use xlink:href="#DejaVuSans-3" transform="translate(229.101562 0.015625)"/>
     <use xlink:href="#Cmmi10-4b" transform="translate(260.888672 0.015625)"/>
     <use xlink:href="#Cmmi10-30" transform="translate(303.808594 -14.984337) scale(0.7)"/>
    </g>
   </g>
   <g id="text_11">
    <!-- parser -->
    <g style="fill: #222222" transform="translate(573.478008 118.035539) scale(0.105 -0.105)">
     <use xlink:href="#DejaVuSans-53"/>
     <use xlink:href="#DejaVuSans-44" transform="translate(63.484375 0)"/>
     <use xlink:href="#DejaVuSans-55" transform="translate(124.765625 0)"/>
     <use xlink:href="#DejaVuSans-56" transform="translate(165.875 0)"/>
     <use xlink:href="#DejaVuSans-48" transform="translate(217.96875 0)"/>
     <use xlink:href="#DejaVuSans-55" transform="translate(279.5 0)"/>
    </g>
   </g>
   <g id="text_12">
    <!-- $\hat\pi_b$ -->
    <g style="fill: #222222" transform="translate(684.93 118.425187) scale(0.12 -0.12)">
     <defs>
      <path id="Cmmi10-24" d="M 647 109 
Q 647 144 672 213 
Q 850 584 1004 942 
Q 1159 1300 1282 1639 
Q 1406 1978 1509 2363 
L 1100 2363 
Q 866 2363 662 2216 
Q 459 2069 325 1844 
Q 313 1819 288 1819 
L 213 1819 
Q 153 1819 153 1881 
Q 153 1894 166 1919 
Q 375 2275 614 2517 
Q 853 2759 1153 2759 
L 3475 2759 
Q 3541 2759 3587 2715 
Q 3634 2672 3634 2597 
Q 3634 2503 3567 2433 
Q 3500 2363 3406 2363 
L 2591 2363 
Q 2488 1859 2478 1381 
Q 2478 766 2694 269 
Q 2713 231 2713 191 
Q 2713 122 2672 62 
Q 2631 3 2567 -34 
Q 2503 -72 2431 -72 
Q 2263 -72 2200 203 
Q 2138 478 2138 738 
Q 2138 1103 2200 1442 
Q 2263 1781 2400 2363 
L 1703 2363 
Q 1197 313 1094 103 
Q 1003 -72 844 -72 
Q 766 -72 706 -20 
Q 647 31 647 109 
z
" transform="scale(0.015625)"/>
     </defs>
     <use xlink:href="#Cmr10-7c" transform="translate(9.066406 2.609375)"/>
     <use xlink:href="#Cmmi10-24" transform="translate(0 0.8125)"/>
     <use xlink:href="#Cmmi10-4b" transform="translate(60.986713 -14.187462) scale(0.7)"/>
    </g>
   </g>
   <g id="text_13">
    <!-- $F(b) = \exp[-\mathrm{KL}(\pi_\phi \,\|\, \hat\pi_b)]$ -->
    <g style="fill: #222222" transform="translate(574.945 200.996711) scale(0.11 -0.11)">
     <defs>
      <path id="Cmmi10-42" d="M 300 0 
Q 238 0 238 84 
Q 241 100 250 139 
Q 259 178 276 201 
Q 294 225 319 225 
Q 709 225 863 269 
Q 947 297 984 441 
L 1863 3956 
Q 1875 4019 1875 4044 
Q 1875 4113 1797 4122 
Q 1678 4147 1338 4147 
Q 1275 4147 1275 4231 
Q 1278 4247 1287 4286 
Q 1297 4325 1314 4348 
Q 1331 4372 1356 4372 
L 4738 4372 
Q 4800 4372 4800 4288 
L 4647 2963 
Q 4647 2944 4625 2925 
Q 4603 2906 4581 2906 
L 4525 2906 
Q 4459 2906 4459 2988 
Q 4500 3278 4500 3463 
Q 4500 3781 4362 3931 
Q 4225 4081 4015 4114 
Q 3806 4147 3438 4147 
L 2753 4147 
Q 2578 4147 2522 4117 
Q 2466 4088 2419 3928 
L 2009 2297 
L 2491 2297 
Q 2728 2297 2875 2322 
Q 3022 2347 3119 2419 
Q 3216 2491 3280 2627 
Q 3344 2763 3397 2988 
Q 3416 3047 3463 3047 
L 3519 3047 
Q 3584 3047 3584 2963 
L 3194 1381 
Q 3166 1325 3128 1325 
L 3072 1325 
Q 3009 1325 3009 1409 
Q 3025 1475 3034 1519 
Q 3044 1563 3058 1645 
Q 3072 1728 3072 1791 
Q 3072 1975 2909 2025 
Q 2747 2075 2484 2075 
L 1959 2075 
L 1544 416 
Q 1528 353 1528 353 
Q 1528 278 1575 269 
Q 1741 225 2228 225 
Q 2291 225 2291 141 
Q 2269 50 2256 25 
Q 2244 0 2181 0 
L 300 0 
z
" transform="scale(0.015625)"/>
      <path id="Cmr10-77" d="M 1984 -1588 
Q 1628 -1306 1370 -942 
Q 1113 -578 948 -165 
Q 784 247 703 697 
Q 622 1147 622 1600 
Q 622 2059 703 2509 
Q 784 2959 951 3375 
Q 1119 3791 1378 4153 
Q 1638 4516 1984 4788 
Q 1984 4800 2016 4800 
L 2075 4800 
Q 2094 4800 2109 4783 
Q 2125 4766 2125 4744 
Q 2125 4716 2113 4703 
Q 1800 4397 1592 4047 
Q 1384 3697 1257 3301 
Q 1131 2906 1075 2482 
Q 1019 2059 1019 1600 
Q 1019 -434 2106 -1491 
Q 2125 -1509 2125 -1544 
Q 2125 -1559 2108 -1579 
Q 2091 -1600 2075 -1600 
L 2016 -1600 
Q 1984 -1600 1984 -1588 
z
" transform="scale(0.015625)"/>
      <path id="Cmr10-44" d="M 416 -1600 
Q 359 -1600 359 -1544 
Q 359 -1516 372 -1503 
Q 1466 -434 1466 1600 
Q 1466 3634 384 4691 
Q 359 4706 359 4744 
Q 359 4766 376 4783 
Q 394 4800 416 4800 
L 475 4800 
Q 494 4800 506 4788 
Q 966 4425 1272 3906 
Q 1578 3388 1720 2800 
Q 1863 2213 1863 1600 
Q 1863 1147 1786 708 
Q 1709 269 1542 -157 
Q 1375 -584 1119 -945 
Q 863 -1306 506 -1588 
Q 494 -1600 475 -1600 
L 416 -1600 
z
" transform="scale(0.015625)"/>
      <path id="Cmr10-29" d="M 481 850 
Q 428 850 393 890 
Q 359 931 359 978 
Q 359 1031 393 1068 
Q 428 1106 481 1106 
L 4500 1106 
Q 4547 1106 4581 1068 
Q 4616 1031 4616 978 
Q 4616 931 4581 890 
Q 4547 850 4500 850 
L 481 850 
z
M 481 2094 
Q 428 2094 393 2131 
Q 359 2169 359 2222 
Q 359 2269 393 2309 
Q 428 2350 481 2350 
L 4500 2350 
Q 4547 2350 4581 2309 
Q 4616 2269 4616 2222 
Q 4616 2169 4581 2131 
Q 4547 2094 4500 2094 
L 481 2094 
z
" transform="scale(0.015625)"/>
      <path id="Cmr10-82" d="M 1594 -72 
Q 1203 -72 876 133 
Q 550 338 364 680 
Q 178 1022 178 1403 
Q 178 1778 348 2115 
Q 519 2453 823 2661 
Q 1128 2869 1503 2869 
Q 1797 2869 2014 2770 
Q 2231 2672 2372 2497 
Q 2513 2322 2584 2084 
Q 2656 1847 2656 1563 
Q 2656 1478 2591 1478 
L 738 1478 
L 738 1409 
Q 738 878 952 497 
Q 1166 116 1650 116 
Q 1847 116 2014 203 
Q 2181 291 2304 447 
Q 2428 603 2472 781 
Q 2478 803 2495 820 
Q 2513 838 2534 838 
L 2591 838 
Q 2656 838 2656 756 
Q 2566 394 2266 161 
Q 1966 -72 1594 -72 
z
M 744 1638 
L 2203 1638 
Q 2203 1878 2136 2125 
Q 2069 2372 1912 2536 
Q 1756 2700 1503 2700 
Q 1141 2700 942 2361 
Q 744 2022 744 1638 
z
" transform="scale(0.015625)"/>
      <path id="Cmr10-2d" d="M 78 0 
L 78 225 
Q 322 225 537 320 
Q 753 416 903 603 
L 1484 1344 
L 728 2328 
Q 616 2469 483 2501 
Q 350 2534 109 2534 
L 109 2759 
L 1441 2759 
L 1441 2534 
Q 1356 2534 1282 2496 
Q 1209 2459 1209 2388 
Q 1209 2363 1228 2328 
L 1741 1663 
L 2125 2156 
Q 2203 2250 2203 2344 
Q 2203 2422 2151 2478 
Q 2100 2534 2016 2534 
L 2016 2759 
L 3194 2759 
L 3194 2534 
Q 2947 2534 2730 2439 
Q 2513 2344 2363 2156 
L 1856 1509 
L 2675 428 
Q 2797 288 2928 256 
Q 3059 225 3303 225 
L 3303 0 
L 1972 0 
L 1972 225 
Q 2050 225 2122 262 
Q 2194 300 2194 372 
Q 2194 400 2175 428 
L 1600 1191 
L 1141 603 
Q 1069 522 1069 416 
Q 1069 338 1122 281 
Q 1175 225 1247 225 
L 1247 0 
L 78 0 
z
" transform="scale(0.015625)"/>
      <path id="Cmr10-7d" d="M 166 -1241 
L 166 -1019 
Q 384 -1019 525 -981 
Q 666 -944 666 -813 
L 666 2272 
Q 666 2447 541 2490 
Q 416 2534 166 2534 
L 166 2759 
L 1113 2828 
L 1113 2431 
Q 1288 2625 1520 2726 
Q 1753 2828 2016 2828 
Q 2394 2828 2697 2623 
Q 3000 2419 3170 2086 
Q 3341 1753 3341 1381 
Q 3341 994 3152 659 
Q 2963 325 2636 126 
Q 2309 -72 1919 -72 
Q 1453 -72 1131 306 
L 1131 -813 
Q 1131 -944 1273 -981 
Q 1416 -1019 1631 -1019 
L 1631 -1241 
L 166 -1241 
z
M 1131 622 
Q 1244 394 1444 245 
Q 1644 97 1881 97 
Q 2103 97 2273 215 
Q 2444 334 2559 534 
Q 2675 734 2729 954 
Q 2784 1175 2784 1381 
Q 2784 1638 2692 1936 
Q 2600 2234 2411 2439 
Q 2222 2644 1953 2644 
Q 1694 2644 1476 2511 
Q 1259 2378 1131 2150 
L 1131 622 
z
" transform="scale(0.015625)"/>
      <path id="Cmr10-3e" d="M 756 -1600 
L 756 4800 
L 1631 4800 
L 1631 4544 
L 1013 4544 
L 1013 -1344 
L 1631 -1344 
L 1631 -1600 
L 756 -1600 
z
" transform="scale(0.015625)"/>
      <path id="Cmsy10-11" d="M 653 1472 
Q 600 1472 565 1512 
Q 531 1553 531 1600 
Q 531 1647 565 1687 
Q 600 1728 653 1728 
L 4325 1728 
Q 4375 1728 4408 1687 
Q 4441 1647 4441 1600 
Q 4441 1553 4408 1512 
Q 4375 1472 4325 1472 
L 653 1472 
z
" transform="scale(0.015625)"/>
      <path id="Cmr10-80" d="M 197 0 
L 197 225 
Q 856 225 856 428 
L 856 3944 
Q 856 4147 197 4147 
L 197 4372 
L 2113 4372 
L 2113 4147 
Q 1453 4147 1453 3944 
L 1453 1869 
L 3431 3769 
Q 3513 3856 3513 3944 
Q 3513 4044 3427 4095 
Q 3341 4147 3231 4147 
L 3231 4372 
L 4622 4372 
L 4622 4147 
Q 4097 4147 3700 3769 
L 2566 2681 
L 3969 603 
Q 4141 350 4270 287 
Q 4400 225 4709 225 
L 4709 0 
L 3034 0 
L 3034 225 
Q 3188 225 3292 256 
Q 3397 288 3397 403 
Q 3397 481 3316 603 
L 2169 2303 
L 1453 1613 
L 1453 428 
Q 1453 225 2113 225 
L 2113 0 
L 197 0 
z
" transform="scale(0.015625)"/>
      <path id="Cmr10-4e" d="M 197 0 
L 197 225 
Q 856 225 856 428 
L 856 3944 
Q 856 4147 197 4147 
L 197 4372 
L 2272 4372 
L 2272 4147 
Q 1453 4147 1453 3944 
L 1453 428 
Q 1453 291 1531 258 
Q 1609 225 1778 225 
L 2272 225 
Q 2750 225 3009 400 
Q 3269 575 3376 876 
Q 3484 1178 3541 1678 
L 3725 1678 
L 3547 0 
L 197 0 
z
" transform="scale(0.015625)"/>
      <path id="Cmmi10-2a" d="M 1241 -1247 
L 1528 -91 
Q 1203 -91 922 61 
Q 641 213 470 484 
Q 300 756 300 1075 
Q 300 1422 472 1737 
Q 644 2053 942 2311 
Q 1241 2569 1584 2708 
Q 1928 2847 2266 2847 
L 2650 4403 
Q 2663 4441 2700 4441 
L 2778 4441 
Q 2803 4441 2818 4419 
Q 2834 4397 2834 4378 
L 2450 2847 
Q 2691 2847 2916 2759 
Q 3141 2672 3314 2514 
Q 3488 2356 3584 2142 
Q 3681 1928 3681 1684 
Q 3681 1338 3509 1022 
Q 3338 706 3047 453 
Q 2756 200 2398 54 
Q 2041 -91 1716 -91 
L 1422 -1275 
Q 1409 -1313 1369 -1313 
L 1294 -1313 
Q 1269 -1313 1255 -1289 
Q 1241 -1266 1241 -1247 
z
M 1569 78 
L 2222 2681 
Q 2059 2681 1881 2615 
Q 1703 2550 1545 2450 
Q 1388 2350 1259 2222 
Q 1103 2066 984 1853 
Q 866 1641 805 1405 
Q 744 1169 744 941 
Q 744 700 847 503 
Q 950 306 1137 192 
Q 1325 78 1569 78 
z
M 1759 78 
Q 2000 78 2272 215 
Q 2544 353 2719 538 
Q 2959 775 3098 1120 
Q 3238 1466 3238 1819 
Q 3238 2056 3134 2254 
Q 3031 2453 2843 2567 
Q 2656 2681 2413 2681 
L 1759 78 
z
" transform="scale(0.015625)"/>
      <path id="Cmsy10-2c" d="M 850 -1484 
L 850 4684 
Q 850 4734 890 4767 
Q 931 4800 978 4800 
Q 1031 4800 1068 4767 
Q 1106 4734 1106 4684 
L 1106 -1484 
Q 1106 -1534 1068 -1567 
Q 1031 -1600 978 -1600 
Q 931 -1600 890 -1567 
Q 850 -1534 850 -1484 
z
M 2094 -1484 
L 2094 4684 
Q 2094 4734 2131 4767 
Q 2169 4800 2222 4800 
Q 2269 4800 2309 4767 
Q 2350 4734 2350 4684 
L 2350 -1484 
Q 2350 -1534 2309 -1567 
Q 2269 -1600 2222 -1600 
Q 2169 -1600 2131 -1567 
Q 2094 -1534 2094 -1484 
z
" transform="scale(0.015625)"/>
      <path id="Cmr10-48" d="M 141 -1600 
L 141 -1344 
L 763 -1344 
L 763 4544 
L 141 4544 
L 141 4800 
L 1019 4800 
L 1019 -1600 
L 141 -1600 
z
" transform="scale(0.015625)"/>
     </defs>
     <use xlink:href="#Cmmi10-42"/>
     <use xlink:href="#Cmr10-77" transform="translate(64.306641 0)"/>
     <use xlink:href="#Cmmi10-4b" transform="translate(103.125 0)"/>
     <use xlink:href="#Cmr10-44" transform="translate(146.044922 0)"/>
     <use xlink:href="#Cmr10-29" transform="translate(204.863338 0)"/>
     <use xlink:href="#Cmr10-82" transform="translate(302.548943 0)"/>
     <use xlink:href="#Cmr10-2d" transform="translate(346.933708 0)"/>
     <use xlink:href="#Cmr10-7d" transform="translate(399.619255 0)"/>
     <use xlink:href="#Cmr10-3e" transform="translate(455.136833 0)"/>
     <use xlink:href="#Cmsy10-11" transform="translate(482.82238 0)"/>
     <use xlink:href="#Cmr10-80" transform="translate(560.507927 0)"/>
     <use xlink:href="#Cmr10-4e" transform="translate(638.193474 0)"/>
     <use xlink:href="#Cmr10-77" transform="translate(700.693474 0)"/>
     <use xlink:href="#Cmmi10-24" transform="translate(739.511833 0)"/>
     <use xlink:href="#Cmmi10-2a" transform="translate(796.494255 -14.999962) scale(0.7)"/>
     <use xlink:href="#Cmsy10-2c" transform="translate(860.546757 0)"/>
     <use xlink:href="#Cmr10-7c" transform="translate(936.280211 1.796875)"/>
     <use xlink:href="#Cmmi10-24" transform="translate(927.213805 0)"/>
     <use xlink:href="#Cmmi10-4b" transform="translate(988.200518 -14.999962) scale(0.7)"/>
     <use xlink:href="#Cmr10-44" transform="translate(1023.964878 0)"/>
     <use xlink:href="#Cmr10-48" transform="translate(1062.783238 0)"/>
    </g>
   </g>
   <g id="text_14">
    <!-- $\pi_\phi(\cdot\mid \hat z_t)$ -->
    <g style="fill: #222222" transform="translate(454.2825 200.88177) scale(0.105 -0.105)">
     <defs>
      <path id="Cmsy10-4e" d="M 538 1600 
Q 538 1691 584 1772 
Q 631 1853 714 1903 
Q 797 1953 891 1953 
Q 981 1953 1064 1903 
Q 1147 1853 1194 1772 
Q 1241 1691 1241 1600 
Q 1241 1456 1139 1351 
Q 1038 1247 891 1247 
Q 747 1247 642 1351 
Q 538 1456 538 1600 
z
" transform="scale(0.015625)"/>
      <path id="Cmsy10-2f" d="M 763 -1484 
L 763 4684 
Q 763 4734 800 4767 
Q 838 4800 891 4800 
Q 938 4800 978 4767 
Q 1019 4734 1019 4684 
L 1019 -1484 
Q 1019 -1534 978 -1567 
Q 938 -1600 891 -1600 
Q 838 -1600 800 -1567 
Q 763 -1534 763 -1484 
z
" transform="scale(0.015625)"/>
     </defs>
     <use xlink:href="#Cmmi10-24"/>
     <use xlink:href="#Cmmi10-2a" transform="translate(56.982422 -14.999962) scale(0.7)"/>
     <use xlink:href="#Cmr10-77" transform="translate(104.367876 0)"/>
     <use xlink:href="#Cmsy10-4e" transform="translate(143.186236 0)"/>
     <use xlink:href="#Cmsy10-2f" transform="translate(190.87184 0)"/>
     <use xlink:href="#Cmr10-7c" transform="translate(240.694163 2.875)"/>
     <use xlink:href="#Cmmi10-46" transform="translate(238.557444 0)"/>
     <use xlink:href="#Cmmi10-30" transform="translate(289.04611 -14.999962) scale(0.7)"/>
     <use xlink:href="#Cmr10-44" transform="translate(320.025314 0)"/>
    </g>
   </g>
   <g id="text_15">
    <!-- $\mathcal{L}_{\rm sup}$ = NLL(reference) -->
    <g style="fill: #222222" transform="translate(64.995 263.0705) scale(0.095 -0.095)">
     <defs>
      <path id="Cmsy10-52" d="M 238 -141 
Q 197 -141 197 -97 
Q 197 -72 219 -38 
Q 266 38 359 130 
Q 453 222 494 275 
Q 656 509 750 691 
Q 913 1028 1031 1466 
Q 1206 2163 1348 2597 
Q 1491 3031 1722 3419 
Q 1903 3719 2168 3967 
Q 2434 4216 2757 4364 
Q 3081 4513 3419 4513 
L 3456 4513 
Q 3622 4513 3734 4430 
Q 3847 4347 3905 4208 
Q 3963 4069 3963 3909 
Q 3963 3666 3884 3572 
Q 3663 3331 3359 3291 
L 3322 3291 
Q 3284 3291 3284 3334 
Q 3284 3341 3300 3431 
Q 3316 3522 3316 3584 
Q 3316 3791 3212 3944 
Q 3109 4097 2906 4097 
Q 2669 4097 2669 4056 
Q 2494 3934 2333 3651 
Q 2172 3369 2051 3039 
Q 1931 2709 1837 2376 
Q 1744 2044 1672 1753 
Q 1594 1438 1470 1148 
Q 1347 859 1178 603 
Q 1253 628 1363 628 
L 1403 628 
Q 1625 628 1847 583 
Q 2069 538 2378 450 
Q 2688 363 2894 320 
Q 3100 278 3328 275 
Q 3397 275 3440 337 
Q 3484 400 3526 511 
Q 3569 622 3597 659 
Q 3694 766 3834 844 
Q 3975 922 4116 941 
L 4153 941 
Q 4172 941 4184 928 
Q 4197 916 4197 897 
Q 4197 897 4191 878 
Q 4128 628 3897 386 
Q 3666 144 3370 1 
Q 3075 -141 2828 -141 
L 2791 -141 
Q 2569 -141 2356 -100 
Q 2144 -59 1834 28 
Q 1525 116 1304 162 
Q 1084 209 863 213 
Q 578 -100 275 -141 
L 238 -141 
z
" transform="scale(0.015625)"/>
      <path id="Cmr10-52" d="M 213 -19 
L 213 1025 
Q 213 1075 269 1075 
L 347 1075 
Q 384 1075 397 1025 
Q 575 97 1259 97 
Q 1563 97 1767 234 
Q 1972 372 1972 659 
Q 1972 866 1812 1011 
Q 1653 1156 1434 1209 
L 1006 1294 
Q 791 1341 614 1437 
Q 438 1534 325 1695 
Q 213 1856 213 2069 
Q 213 2350 361 2529 
Q 509 2709 746 2789 
Q 984 2869 1259 2869 
Q 1588 2869 1831 2694 
L 2016 2853 
Q 2016 2869 2047 2869 
L 2094 2869 
Q 2113 2869 2128 2851 
Q 2144 2834 2144 2816 
L 2144 1978 
Q 2144 1919 2094 1919 
L 2016 1919 
Q 1959 1919 1959 1978 
Q 1959 2313 1773 2516 
Q 1588 2719 1253 2719 
Q 966 2719 755 2612 
Q 544 2506 544 2247 
Q 544 2069 695 1955 
Q 847 1841 1050 1791 
L 1484 1709 
Q 1703 1659 1892 1540 
Q 2081 1422 2192 1240 
Q 2303 1059 2303 831 
Q 2303 600 2223 429 
Q 2144 259 2001 146 
Q 1859 34 1665 -19 
Q 1472 -72 1259 -72 
Q 859 -72 575 197 
L 341 -56 
Q 341 -72 306 -72 
L 269 -72 
Q 213 -72 213 -19 
z
" transform="scale(0.015625)"/>
      <path id="Cmr10-5a" d="M 691 763 
L 691 2175 
Q 691 2347 639 2423 
Q 588 2500 491 2517 
Q 394 2534 191 2534 
L 191 2759 
L 1159 2828 
L 1159 763 
Q 1159 513 1195 373 
Q 1231 234 1348 165 
Q 1466 97 1722 97 
Q 2066 97 2269 384 
Q 2472 672 2472 1038 
L 2472 2175 
Q 2472 2347 2419 2423 
Q 2366 2500 2270 2517 
Q 2175 2534 1972 2534 
L 1972 2759 
L 2938 2828 
L 2938 581 
Q 2938 413 2989 336 
Q 3041 259 3137 242 
Q 3234 225 3438 225 
L 3438 0 
L 2491 -72 
L 2491 469 
Q 2372 228 2159 78 
Q 1947 -72 1691 -72 
Q 1231 -72 961 123 
Q 691 319 691 763 
z
" transform="scale(0.015625)"/>
      <path id="DejaVuSans-20" d="M 678 2906 
L 4684 2906 
L 4684 2381 
L 678 2381 
L 678 2906 
z
M 678 1631 
L 4684 1631 
L 4684 1100 
L 678 1100 
L 678 1631 
z
" transform="scale(0.015625)"/>
      <path id="DejaVuSans-31" d="M 628 4666 
L 1478 4666 
L 3547 763 
L 3547 4666 
L 4159 4666 
L 4159 0 
L 3309 0 
L 1241 3903 
L 1241 0 
L 628 0 
L 628 4666 
z
" transform="scale(0.015625)"/>
      <path id="DejaVuSans-b" d="M 1984 4856 
Q 1566 4138 1362 3434 
Q 1159 2731 1159 2009 
Q 1159 1288 1364 580 
Q 1569 -128 1984 -844 
L 1484 -844 
Q 1016 -109 783 600 
Q 550 1309 550 2009 
Q 550 2706 781 3412 
Q 1013 4119 1484 4856 
L 1984 4856 
z
" transform="scale(0.015625)"/>
      <path id="DejaVuSans-c" d="M 513 4856 
L 1013 4856 
Q 1481 4119 1714 3412 
Q 1947 2706 1947 2009 
Q 1947 1309 1714 600 
Q 1481 -109 1013 -844 
L 513 -844 
Q 928 -128 1133 580 
Q 1338 1288 1338 2009 
Q 1338 2731 1133 3434 
Q 928 4138 513 4856 
z
" transform="scale(0.015625)"/>
     </defs>
     <use xlink:href="#Cmsy10-52" transform="translate(0 0.015625)"/>
     <use xlink:href="#Cmr10-52" transform="translate(72.900775 -14.984337) scale(0.7)"/>
     <use xlink:href="#Cmr10-5a" transform="translate(100.483783 -14.984337) scale(0.7)"/>
     <use xlink:href="#Cmr10-7d" transform="translate(139.346088 -14.984337) scale(0.7)"/>
     <use xlink:href="#DejaVuSans-3" transform="translate(183.928808 0.015625)"/>
     <use xlink:href="#DejaVuSans-20" transform="translate(215.715917 0.015625)"/>
     <use xlink:href="#DejaVuSans-3" transform="translate(299.50498 0.015625)"/>
     <use xlink:href="#DejaVuSans-31" transform="translate(331.292089 0.015625)"/>
     <use xlink:href="#DejaVuSans-2f" transform="translate(406.096777 0.015625)"/>
     <use xlink:href="#DejaVuSans-2f" transform="translate(461.809667 0.015625)"/>
     <use xlink:href="#DejaVuSans-b" transform="translate(517.522558 0.015625)"/>
     <use xlink:href="#DejaVuSans-55" transform="translate(556.53623 0.015625)"/>
     <use xlink:href="#DejaVuSans-48" transform="translate(595.649511 0.015625)"/>
     <use xlink:href="#DejaVuSans-49" transform="translate(657.172949 0.015625)"/>
     <use xlink:href="#DejaVuSans-48" transform="translate(692.378027 0.015625)"/>
     <use xlink:href="#DejaVuSans-55" transform="translate(753.901464 0.015625)"/>
     <use xlink:href="#DejaVuSans-48" transform="translate(793.014745 0.015625)"/>
     <use xlink:href="#DejaVuSans-51" transform="translate(854.538183 0.015625)"/>
     <use xlink:href="#DejaVuSans-46" transform="translate(917.917089 0.015625)"/>
     <use xlink:href="#DejaVuSans-48" transform="translate(972.897558 0.015625)"/>
     <use xlink:href="#DejaVuSans-c" transform="translate(1034.420995 0.015625)"/>
    </g>
   </g>
   <g id="text_16">
    <!-- $\mathcal{L}_{\rm faith} = -(F(b) - F(b_{\rm greedy}))\,\log p(b)$ -->
    <g style="fill: #222222" transform="translate(281.0075 263.021887) scale(0.095 -0.095)">
     <defs>
      <path id="Cmr10-50" d="M 206 0 
L 206 225 
Q 422 225 562 259 
Q 703 294 703 428 
L 703 2534 
L 213 2534 
L 213 2759 
L 703 2759 
L 703 3525 
Q 703 3731 789 3911 
Q 875 4091 1020 4225 
Q 1166 4359 1355 4436 
Q 1544 4513 1747 4513 
Q 1963 4513 2136 4384 
Q 2309 4256 2309 4044 
Q 2309 3922 2226 3839 
Q 2144 3756 2022 3756 
Q 1900 3756 1814 3839 
Q 1728 3922 1728 4044 
Q 1728 4244 1900 4313 
Q 1797 4347 1716 4347 
Q 1528 4347 1395 4214 
Q 1263 4081 1197 3890 
Q 1131 3700 1131 3513 
L 1131 2759 
L 1869 2759 
L 1869 2534 
L 1153 2534 
L 1153 428 
Q 1153 297 1340 261 
Q 1528 225 1772 225 
L 1772 0 
L 206 0 
z
" transform="scale(0.015625)"/>
      <path id="Cmr10-73" d="M 256 628 
Q 256 1009 556 1248 
Q 856 1488 1276 1586 
Q 1697 1684 2075 1684 
L 2075 1947 
Q 2075 2131 1994 2304 
Q 1913 2478 1759 2589 
Q 1606 2700 1422 2700 
Q 997 2700 775 2509 
Q 897 2509 976 2417 
Q 1056 2325 1056 2203 
Q 1056 2075 965 1984 
Q 875 1894 750 1894 
Q 622 1894 531 1984 
Q 441 2075 441 2203 
Q 441 2541 747 2705 
Q 1053 2869 1422 2869 
Q 1681 2869 1943 2758 
Q 2206 2647 2373 2440 
Q 2541 2234 2541 1959 
L 2541 519 
Q 2541 394 2594 289 
Q 2647 184 2759 184 
Q 2866 184 2917 290 
Q 2969 397 2969 519 
L 2969 928 
L 3156 928 
L 3156 519 
Q 3156 375 3081 245 
Q 3006 116 2879 39 
Q 2753 -38 2606 -38 
Q 2419 -38 2283 107 
Q 2147 253 2131 453 
Q 2013 213 1781 70 
Q 1550 -72 1288 -72 
Q 1044 -72 808 0 
Q 572 72 414 226 
Q 256 381 256 628 
z
M 775 628 
Q 775 403 940 250 
Q 1106 97 1331 97 
Q 1538 97 1706 200 
Q 1875 303 1975 481 
Q 2075 659 2075 856 
L 2075 1522 
Q 1784 1522 1479 1426 
Q 1175 1331 975 1128 
Q 775 925 775 628 
z
" transform="scale(0.015625)"/>
      <path id="Cmr10-24" d="M 197 0 
L 197 225 
Q 416 225 556 259 
Q 697 294 697 428 
L 697 2175 
Q 697 2422 601 2478 
Q 506 2534 225 2534 
L 225 2759 
L 1147 2828 
L 1147 428 
Q 1147 294 1269 259 
Q 1391 225 1594 225 
L 1594 0 
L 197 0 
z
M 469 3928 
Q 469 4069 575 4175 
Q 681 4281 819 4281 
Q 909 4281 993 4234 
Q 1078 4188 1125 4103 
Q 1172 4019 1172 3928 
Q 1172 3791 1065 3684 
Q 959 3578 819 3578 
Q 681 3578 575 3684 
Q 469 3791 469 3928 
z
" transform="scale(0.015625)"/>
      <path id="Cmr10-1c" d="M 653 769 
L 653 2534 
L 122 2534 
L 122 2700 
Q 541 2700 737 3090 
Q 934 3481 934 3938 
L 1119 3938 
L 1119 2759 
L 2022 2759 
L 2022 2534 
L 1119 2534 
L 1119 781 
Q 1119 516 1208 316 
Q 1297 116 1528 116 
Q 1747 116 1844 327 
Q 1941 538 1941 781 
L 1941 1159 
L 2125 1159 
L 2125 769 
Q 2125 569 2051 373 
Q 1978 178 1834 53 
Q 1691 -72 1484 -72 
Q 1100 -72 876 158 
Q 653 388 653 769 
z
" transform="scale(0.015625)"/>
      <path id="Cmr10-59" d="M 191 0 
L 191 225 
Q 409 225 550 259 
Q 691 294 691 428 
L 691 3788 
Q 691 3959 639 4036 
Q 588 4113 491 4130 
Q 394 4147 191 4147 
L 191 4372 
L 1141 4441 
L 1141 2241 
Q 1275 2506 1515 2667 
Q 1756 2828 2047 2828 
Q 2491 2828 2714 2615 
Q 2938 2403 2938 1966 
L 2938 428 
Q 2938 294 3078 259 
Q 3219 225 3438 225 
L 3438 0 
L 1972 0 
L 1972 225 
Q 2191 225 2331 259 
Q 2472 294 2472 428 
L 2472 1947 
Q 2472 2259 2381 2461 
Q 2291 2663 2009 2663 
Q 1638 2663 1398 2366 
Q 1159 2069 1159 1691 
L 1159 428 
Q 1159 294 1300 259 
Q 1441 225 1656 225 
L 1656 0 
L 191 0 
z
" transform="scale(0.015625)"/>
      <path id="Cmr10-1b" d="M 178 -500 
Q 178 -272 343 -101 
Q 509 69 738 141 
Q 609 238 542 384 
Q 475 531 475 697 
Q 475 997 666 1228 
Q 372 1516 372 1888 
Q 372 2088 458 2263 
Q 544 2438 697 2566 
Q 850 2694 1037 2761 
Q 1225 2828 1422 2828 
Q 1803 2828 2106 2606 
Q 2238 2747 2417 2823 
Q 2597 2900 2791 2900 
Q 2928 2900 3015 2801 
Q 3103 2703 3103 2566 
Q 3103 2488 3043 2428 
Q 2984 2369 2906 2369 
Q 2825 2369 2765 2428 
Q 2706 2488 2706 2566 
Q 2706 2684 2784 2731 
Q 2453 2731 2216 2503 
Q 2331 2388 2401 2220 
Q 2472 2053 2472 1888 
Q 2472 1616 2322 1398 
Q 2172 1181 1926 1061 
Q 1681 941 1422 941 
Q 1072 941 781 1131 
Q 691 1006 691 850 
Q 691 681 802 554 
Q 913 428 1081 428 
L 1606 428 
Q 1988 428 2294 359 
Q 2600 291 2808 84 
Q 3016 -122 3016 -500 
Q 3016 -781 2778 -967 
Q 2541 -1153 2211 -1236 
Q 1881 -1319 1600 -1319 
Q 1316 -1319 984 -1236 
Q 653 -1153 415 -967 
Q 178 -781 178 -500 
z
M 538 -500 
Q 538 -716 713 -861 
Q 888 -1006 1134 -1076 
Q 1381 -1147 1600 -1147 
Q 1816 -1147 2062 -1076 
Q 2309 -1006 2482 -861 
Q 2656 -716 2656 -500 
Q 2656 -166 2350 -67 
Q 2044 31 1606 31 
L 1081 31 
Q 934 31 811 -39 
Q 688 -109 613 -236 
Q 538 -363 538 -500 
z
M 1422 1113 
Q 1966 1113 1966 1888 
Q 1966 2222 1850 2439 
Q 1734 2656 1422 2656 
Q 1109 2656 993 2439 
Q 878 2222 878 1888 
Q 878 1675 922 1503 
Q 966 1331 1084 1222 
Q 1203 1113 1422 1113 
z
" transform="scale(0.015625)"/>
      <path id="Cmr10-84" d="M 166 0 
L 166 225 
Q 384 225 525 259 
Q 666 294 666 428 
L 666 2175 
Q 666 2347 614 2423 
Q 563 2500 466 2517 
Q 369 2534 166 2534 
L 166 2759 
L 1081 2828 
L 1081 2203 
Q 1184 2481 1375 2654 
Q 1566 2828 1838 2828 
Q 2028 2828 2178 2715 
Q 2328 2603 2328 2419 
Q 2328 2303 2245 2217 
Q 2163 2131 2041 2131 
Q 1922 2131 1837 2215 
Q 1753 2300 1753 2419 
Q 1753 2591 1875 2663 
L 1838 2663 
Q 1578 2663 1414 2475 
Q 1250 2288 1181 2009 
Q 1113 1731 1113 1478 
L 1113 428 
Q 1113 225 1734 225 
L 1734 0 
L 166 0 
z
" transform="scale(0.015625)"/>
      <path id="Cmr10-49" d="M 1563 -72 
Q 1184 -72 871 133 
Q 559 338 386 672 
Q 213 1006 213 1381 
Q 213 1769 402 2101 
Q 591 2434 916 2631 
Q 1241 2828 1631 2828 
Q 1866 2828 2075 2729 
Q 2284 2631 2438 2456 
L 2438 3788 
Q 2438 3959 2386 4036 
Q 2334 4113 2239 4130 
Q 2144 4147 1941 4147 
L 1941 4372 
L 2888 4441 
L 2888 581 
Q 2888 413 2939 336 
Q 2991 259 3086 242 
Q 3181 225 3384 225 
L 3384 0 
L 2419 -72 
L 2419 331 
Q 2253 141 2025 34 
Q 1797 -72 1563 -72 
z
M 909 556 
Q 1019 347 1201 222 
Q 1384 97 1600 97 
Q 1866 97 2087 250 
Q 2309 403 2419 647 
L 2419 2181 
Q 2344 2322 2230 2433 
Q 2116 2544 1973 2603 
Q 1831 2663 1672 2663 
Q 1338 2663 1134 2473 
Q 931 2284 850 1990 
Q 769 1697 769 1375 
Q 769 1119 795 928 
Q 822 738 909 556 
z
" transform="scale(0.015625)"/>
      <path id="Cmr10-6b" d="M 441 -1050 
Q 563 -1147 709 -1147 
Q 1113 -1147 1369 -538 
L 1588 0 
L 628 2350 
Q 569 2469 447 2501 
Q 325 2534 122 2534 
L 122 2759 
L 1466 2759 
L 1466 2534 
Q 1113 2534 1113 2381 
Q 1113 2356 1119 2344 
L 1831 594 
L 2472 2169 
Q 2491 2219 2491 2278 
Q 2491 2356 2448 2414 
Q 2406 2472 2339 2503 
Q 2272 2534 2188 2534 
L 2188 2759 
L 3250 2759 
L 3250 2534 
Q 3053 2534 2904 2443 
Q 2756 2353 2675 2175 
L 1569 -538 
Q 1481 -744 1364 -917 
Q 1247 -1091 1078 -1202 
Q 909 -1313 709 -1313 
Q 475 -1313 298 -1158 
Q 122 -1003 122 -775 
Q 122 -656 203 -575 
Q 284 -494 403 -494 
Q 484 -494 548 -530 
Q 613 -566 648 -628 
Q 684 -691 684 -775 
Q 684 -878 615 -959 
Q 547 -1041 441 -1050 
z
" transform="scale(0.015625)"/>
      <path id="Cmr10-6a" d="M 197 0 
L 197 225 
Q 416 225 556 259 
Q 697 294 697 428 
L 697 3788 
Q 697 3959 645 4036 
Q 594 4113 497 4130 
Q 400 4147 197 4147 
L 197 4372 
L 1147 4441 
L 1147 428 
Q 1147 294 1287 259 
Q 1428 225 1644 225 
L 1644 0 
L 197 0 
z
" transform="scale(0.015625)"/>
      <path id="Cmr10-42" d="M 1600 -72 
Q 1216 -72 887 123 
Q 559 319 368 647 
Q 178 975 178 1363 
Q 178 1656 283 1928 
Q 388 2200 583 2414 
Q 778 2628 1037 2748 
Q 1297 2869 1600 2869 
Q 1994 2869 2317 2661 
Q 2641 2453 2828 2104 
Q 3016 1756 3016 1363 
Q 3016 978 2825 648 
Q 2634 319 2307 123 
Q 1981 -72 1600 -72 
z
M 1600 116 
Q 2113 116 2284 487 
Q 2456 859 2456 1434 
Q 2456 1756 2422 1967 
Q 2388 2178 2272 2350 
Q 2200 2456 2089 2536 
Q 1978 2616 1854 2658 
Q 1731 2700 1600 2700 
Q 1400 2700 1220 2609 
Q 1041 2519 922 2350 
Q 803 2169 770 1951 
Q 738 1734 738 1434 
Q 738 1075 800 789 
Q 863 503 1052 309 
Q 1241 116 1600 116 
z
" transform="scale(0.015625)"/>
      <path id="Cmmi10-80" d="M -159 -1241 
Q -219 -1241 -219 -1159 
Q -197 -1019 -134 -1019 
Q 66 -1019 145 -983 
Q 225 -947 269 -800 
L 991 2081 
Q 1038 2200 1038 2388 
Q 1038 2663 850 2663 
Q 650 2663 553 2423 
Q 456 2184 366 1819 
Q 366 1778 313 1778 
L 238 1778 
Q 222 1778 203 1801 
Q 184 1825 184 1844 
Q 253 2122 317 2315 
Q 381 2509 517 2668 
Q 653 2828 856 2828 
Q 1075 2828 1240 2704 
Q 1406 2581 1453 2369 
Q 1628 2572 1840 2700 
Q 2053 2828 2278 2828 
Q 2547 2828 2745 2684 
Q 2944 2541 3044 2308 
Q 3144 2075 3144 1806 
Q 3144 1394 2933 953 
Q 2722 513 2361 220 
Q 2000 -72 1588 -72 
Q 1400 -72 1248 34 
Q 1097 141 1013 313 
L 722 -825 
Q 706 -919 703 -934 
Q 703 -1019 1125 -1019 
Q 1191 -1019 1191 -1100 
Q 1169 -1184 1155 -1212 
Q 1141 -1241 1081 -1241 
L -159 -1241 
z
M 1594 97 
Q 1816 97 2006 280 
Q 2197 463 2316 691 
Q 2403 863 2479 1111 
Q 2556 1359 2612 1640 
Q 2669 1922 2669 2088 
Q 2669 2234 2630 2362 
Q 2591 2491 2502 2577 
Q 2413 2663 2266 2663 
Q 2031 2663 1823 2495 
Q 1616 2328 1447 2081 
L 1447 2059 
L 1094 647 
Q 1138 419 1263 258 
Q 1388 97 1594 97 
z
" transform="scale(0.015625)"/>
     </defs>
     <use xlink:href="#Cmsy10-52"/>
     <use xlink:href="#Cmr10-50" transform="translate(72.900775 -14.999962) scale(0.7)"/>
     <use xlink:href="#Cmr10-73" transform="translate(94.26308 -14.999962) scale(0.7)"/>
     <use xlink:href="#Cmr10-24" transform="translate(129.26308 -14.999962) scale(0.7)"/>
     <use xlink:href="#Cmr10-1c" transform="translate(148.642963 -14.999962) scale(0.7)"/>
     <use xlink:href="#Cmr10-59" transform="translate(175.815814 -14.999962) scale(0.7)"/>
     <use xlink:href="#Cmr10-29" transform="translate(240.398592 0)"/>
     <use xlink:href="#Cmsy10-11" transform="translate(338.084196 0)"/>
     <use xlink:href="#Cmr10-77" transform="translate(415.769743 0)"/>
     <use xlink:href="#Cmmi10-42" transform="translate(454.588102 0)"/>
     <use xlink:href="#Cmr10-77" transform="translate(518.894743 0)"/>
     <use xlink:href="#Cmmi10-4b" transform="translate(557.713102 0)"/>
     <use xlink:href="#Cmr10-44" transform="translate(600.633024 0)"/>
     <use xlink:href="#Cmsy10-11" transform="translate(659.45144 0)"/>
     <use xlink:href="#Cmmi10-42" transform="translate(757.137045 0)"/>
     <use xlink:href="#Cmr10-77" transform="translate(821.443685 0)"/>
     <use xlink:href="#Cmmi10-4b" transform="translate(860.262045 0)"/>
     <use xlink:href="#Cmr10-1b" transform="translate(903.181966 -14.999962) scale(0.7)"/>
     <use xlink:href="#Cmr10-84" transform="translate(938.181966 -14.999962) scale(0.7)"/>
     <use xlink:href="#Cmr10-82" transform="translate(965.559896 -14.999962) scale(0.7)"/>
     <use xlink:href="#Cmr10-82" transform="translate(996.629232 -14.999962) scale(0.7)"/>
     <use xlink:href="#Cmr10-49" transform="translate(1027.698568 -14.999962) scale(0.7)"/>
     <use xlink:href="#Cmr10-6b" transform="translate(1066.560873 -14.999962) scale(0.7)"/>
     <use xlink:href="#Cmr10-44" transform="translate(1109.161171 0)"/>
     <use xlink:href="#Cmr10-44" transform="translate(1147.97953 0)"/>
     <use xlink:href="#Cmr10-6a" transform="translate(1203.464937 0)"/>
     <use xlink:href="#Cmr10-42" transform="translate(1231.150484 0)"/>
     <use xlink:href="#Cmr10-1b" transform="translate(1281.150484 0)"/>
     <use xlink:href="#Cmmi10-80" transform="translate(1347.817532 0)"/>
     <use xlink:href="#Cmr10-77" transform="translate(1398.110501 0)"/>
     <use xlink:href="#Cmmi10-4b" transform="translate(1436.92886 0)"/>
     <use xlink:href="#Cmr10-44" transform="translate(1479.848782 0)"/>
    </g>
   </g>
   <g id="text_17">
    <!-- $\mathcal{L} = \mathcal{L}_{\rm sup} + w_f\,\mathcal{L}_{\rm faith}$ -->
    <g transform="translate(23.94 320.192711) scale(0.11 -0.11)">
     <defs>
      <path id="Cmr10-4c" d="M 481 1472 
Q 428 1472 393 1512 
Q 359 1553 359 1600 
Q 359 1647 393 1687 
Q 428 1728 481 1728 
L 2363 1728 
L 2363 3616 
Q 2363 3666 2400 3698 
Q 2438 3731 2491 3731 
Q 2538 3731 2578 3698 
Q 2619 3666 2619 3616 
L 2619 1728 
L 4500 1728 
Q 4547 1728 4581 1687 
Q 4616 1647 4616 1600 
Q 4616 1553 4581 1512 
Q 4547 1472 4500 1472 
L 2619 1472 
L 2619 -416 
Q 2619 -466 2578 -498 
Q 2538 -531 2491 -531 
Q 2438 -531 2400 -498 
Q 2363 -466 2363 -416 
L 2363 1472 
L 481 1472 
z
" transform="scale(0.015625)"/>
      <path id="Cmmi10-6a" d="M 691 744 
Q 691 878 727 1053 
Q 763 1228 806 1364 
Q 850 1500 954 1781 
Q 1059 2063 1069 2088 
Q 1153 2322 1153 2472 
Q 1153 2663 1013 2663 
Q 759 2663 595 2402 
Q 431 2141 353 1819 
Q 341 1778 300 1778 
L 225 1778 
Q 172 1778 172 1838 
L 172 1856 
Q 275 2238 487 2533 
Q 700 2828 1025 2828 
Q 1253 2828 1411 2678 
Q 1569 2528 1569 2297 
Q 1569 2178 1516 2047 
Q 1441 1853 1339 1581 
Q 1238 1309 1181 1087 
Q 1125 866 1125 659 
Q 1125 409 1256 253 
Q 1388 97 1638 97 
Q 1978 97 2203 616 
Q 2194 653 2194 722 
Q 2194 894 2247 1113 
L 2606 2553 
Q 2628 2638 2706 2698 
Q 2784 2759 2875 2759 
Q 2950 2759 3008 2709 
Q 3066 2659 3066 2578 
Q 3066 2541 3059 2528 
L 2700 1100 
Q 2638 844 2638 641 
Q 2638 400 2748 248 
Q 2859 97 3097 97 
Q 3509 97 3775 641 
Q 3875 834 3998 1212 
Q 4122 1591 4122 1791 
Q 4122 1975 4062 2083 
Q 4003 2191 3898 2316 
Q 3794 2441 3794 2503 
Q 3794 2625 3898 2729 
Q 4003 2834 4128 2834 
Q 4281 2834 4348 2693 
Q 4416 2553 4416 2375 
Q 4416 2159 4344 1826 
Q 4272 1494 4162 1158 
Q 4053 822 3956 622 
Q 3606 -72 3084 -72 
Q 2816 -72 2594 31 
Q 2372 134 2266 359 
Q 2163 175 1995 51 
Q 1828 -72 1625 -72 
Q 1203 -72 947 129 
Q 691 331 691 744 
z
" transform="scale(0.015625)"/>
      <path id="Cmmi10-57" d="M 622 -1056 
Q 741 -1147 909 -1147 
Q 1138 -1147 1281 -641 
Q 1341 -397 1606 966 
L 1900 2534 
L 1350 2534 
Q 1288 2534 1288 2619 
Q 1313 2759 1369 2759 
L 1941 2759 
L 2016 3175 
Q 2053 3369 2084 3508 
Q 2116 3647 2152 3765 
Q 2188 3884 2259 4031 
Q 2369 4241 2555 4377 
Q 2741 4513 2956 4513 
Q 3097 4513 3230 4461 
Q 3363 4409 3447 4306 
Q 3531 4203 3531 4063 
Q 3531 3900 3423 3779 
Q 3316 3659 3163 3659 
Q 3059 3659 2986 3723 
Q 2913 3788 2913 3891 
Q 2913 4031 3008 4136 
Q 3103 4241 3244 4256 
Q 3125 4347 2950 4347 
Q 2853 4347 2767 4256 
Q 2681 4166 2656 4063 
Q 2616 3900 2478 3181 
L 2400 2759 
L 3059 2759 
Q 3122 2759 3122 2675 
Q 3119 2659 3109 2620 
Q 3100 2581 3083 2557 
Q 3066 2534 3041 2534 
L 2356 2534 
L 2059 972 
Q 2003 631 1929 279 
Q 1856 -72 1723 -442 
Q 1591 -813 1384 -1063 
Q 1178 -1313 897 -1313 
Q 681 -1313 511 -1189 
Q 341 -1066 341 -863 
Q 341 -700 445 -579 
Q 550 -459 709 -459 
Q 816 -459 887 -523 
Q 959 -588 959 -691 
Q 959 -828 857 -942 
Q 756 -1056 622 -1056 
z
" transform="scale(0.015625)"/>
     </defs>
     <use xlink:href="#Cmsy10-52" transform="translate(0 0.484375)"/>
     <use xlink:href="#Cmr10-29" transform="translate(88.896542 0.484375)"/>
     <use xlink:href="#Cmsy10-52" transform="translate(186.582146 0.484375)"/>
     <use xlink:href="#Cmr10-52" transform="translate(259.482921 -14.515587) scale(0.7)"/>
     <use xlink:href="#Cmr10-5a" transform="translate(287.065929 -14.515587) scale(0.7)"/>
     <use xlink:href="#Cmr10-7d" transform="translate(325.928233 -14.515587) scale(0.7)"/>
     <use xlink:href="#Cmr10-4c" transform="translate(390.511011 0.484375)"/>
     <use xlink:href="#Cmmi10-6a" transform="translate(488.196615 0.484375)"/>
     <use xlink:href="#Cmmi10-57" transform="translate(559.68099 -14.515587) scale(0.7)"/>
     <use xlink:href="#Cmsy10-52" transform="translate(616.28232 0.484375)"/>
     <use xlink:href="#Cmr10-50" transform="translate(689.183095 -14.515587) scale(0.7)"/>
     <use xlink:href="#Cmr10-73" transform="translate(710.5454 -14.515587) scale(0.7)"/>
     <use xlink:href="#Cmr10-24" transform="translate(745.5454 -14.515587) scale(0.7)"/>
     <use xlink:href="#Cmr10-1c" transform="translate(764.925283 -14.515587) scale(0.7)"/>
     <use xlink:href="#Cmr10-59" transform="translate(792.098135 -14.515587) scale(0.7)"/>
    </g>
   </g>
   <g id="text_18">
    <!-- conformal certificate -->
    <g style="fill: #a12a2a" transform="translate(509.165781 317.664) scale(0.1 -0.1)">
     <defs>
      <path id="DejaVuSans-Bold-50" d="M 3781 2919 
Q 3994 3244 4286 3414 
Q 4578 3584 4928 3584 
Q 5531 3584 5847 3212 
Q 6163 2841 6163 2131 
L 6163 0 
L 5038 0 
L 5038 1825 
Q 5041 1866 5042 1909 
Q 5044 1953 5044 2034 
Q 5044 2406 4934 2573 
Q 4825 2741 4581 2741 
Q 4263 2741 4089 2478 
Q 3916 2216 3909 1719 
L 3909 0 
L 2784 0 
L 2784 1825 
Q 2784 2406 2684 2573 
Q 2584 2741 2328 2741 
Q 2006 2741 1831 2477 
Q 1656 2213 1656 1722 
L 1656 0 
L 531 0 
L 531 3500 
L 1656 3500 
L 1656 2988 
Q 1863 3284 2130 3434 
Q 2397 3584 2719 3584 
Q 3081 3584 3359 3409 
Q 3638 3234 3781 2919 
z
" transform="scale(0.015625)"/>
      <path id="DejaVuSans-Bold-13ab" d="M 3078 4863 
L 4206 4863 
L 4206 3950 
L 3078 3950 
L 3078 4863 
z
M 2847 4863 
L 2847 4128 
L 2228 4128 
Q 1994 4128 1903 4042 
Q 1813 3956 1813 3744 
L 1813 3500 
L 4206 3500 
L 4206 0 
L 3078 0 
L 3078 2700 
L 1813 2700 
L 1813 0 
L 684 0 
L 684 2700 
L 134 2700 
L 134 3500 
L 684 3500 
L 684 3744 
Q 684 4316 1003 4589 
Q 1322 4863 1991 4863 
L 2847 4863 
z
" transform="scale(0.015625)"/>
     </defs>
     <use xlink:href="#DejaVuSans-Bold-46"/>
     <use xlink:href="#DejaVuSans-Bold-52" transform="translate(59.28125 0)"/>
     <use xlink:href="#DejaVuSans-Bold-51" transform="translate(127.984375 0)"/>
     <use xlink:href="#DejaVuSans-Bold-49" transform="translate(199.171875 0)"/>
     <use xlink:href="#DejaVuSans-Bold-52" transform="translate(242.671875 0)"/>
     <use xlink:href="#DejaVuSans-Bold-55" transform="translate(311.375 0)"/>
     <use xlink:href="#DejaVuSans-Bold-50" transform="translate(360.6875 0)"/>
     <use xlink:href="#DejaVuSans-Bold-44" transform="translate(464.890625 0)"/>
     <use xlink:href="#DejaVuSans-Bold-4f" transform="translate(532.375 0)"/>
     <use xlink:href="#DejaVuSans-Bold-3" transform="translate(566.65625 0)"/>
     <use xlink:href="#DejaVuSans-Bold-46" transform="translate(601.46875 0)"/>
     <use xlink:href="#DejaVuSans-Bold-48" transform="translate(660.75 0)"/>
     <use xlink:href="#DejaVuSans-Bold-55" transform="translate(728.578125 0)"/>
     <use xlink:href="#DejaVuSans-Bold-57" transform="translate(777.890625 0)"/>
     <use xlink:href="#DejaVuSans-Bold-4c" transform="translate(825.6875 0)"/>
     <use xlink:href="#DejaVuSans-Bold-13ab" transform="translate(859.96875 0)"/>
     <use xlink:href="#DejaVuSans-Bold-46" transform="translate(934.09375 0)"/>
     <use xlink:href="#DejaVuSans-Bold-44" transform="translate(993.375 0)"/>
     <use xlink:href="#DejaVuSans-Bold-57" transform="translate(1060.859375 0)"/>
     <use xlink:href="#DejaVuSans-Bold-48" transform="translate(1108.65625 0)"/>
    </g>
   </g>
   <g id="text_19">
    <!-- $s = 1 - F$;   $\Pr[\,F(b) \geq 1 - \hat s\,] \geq 1 - \delta$ -->
    <g transform="translate(485.6175 345.384) scale(0.105 -0.105)">
     <defs>
      <path id="Cmmi10-58" d="M 556 391 
Q 728 97 1247 97 
Q 1472 97 1675 173 
Q 1878 250 2011 403 
Q 2144 556 2144 775 
Q 2144 941 2025 1047 
Q 1906 1153 1734 1191 
L 1388 1259 
Q 1150 1319 997 1481 
Q 844 1644 844 1875 
Q 844 2159 998 2378 
Q 1153 2597 1406 2712 
Q 1659 2828 1931 2828 
Q 2222 2828 2451 2689 
Q 2681 2550 2681 2278 
Q 2681 2131 2598 2018 
Q 2516 1906 2369 1906 
Q 2284 1906 2223 1961 
Q 2163 2016 2163 2100 
Q 2163 2175 2205 2245 
Q 2247 2316 2317 2358 
Q 2388 2400 2463 2400 
Q 2406 2538 2251 2600 
Q 2097 2663 1919 2663 
Q 1756 2663 1593 2597 
Q 1431 2531 1332 2404 
Q 1234 2278 1234 2106 
Q 1234 1991 1315 1903 
Q 1397 1816 1516 1778 
L 1888 1703 
Q 2066 1666 2214 1570 
Q 2363 1475 2448 1329 
Q 2534 1184 2534 997 
Q 2534 759 2401 528 
Q 2269 297 2075 159 
Q 1734 -72 1241 -72 
Q 900 -72 615 84 
Q 331 241 331 550 
Q 331 725 432 854 
Q 534 984 709 984 
Q 813 984 883 921 
Q 953 859 953 756 
Q 953 609 843 500 
Q 734 391 588 391 
L 556 391 
z
" transform="scale(0.015625)"/>
      <path id="Cmr10-64" d="M 594 0 
L 594 225 
Q 1394 225 1394 428 
L 1394 3788 
Q 1063 3628 556 3628 
L 556 3853 
Q 1341 3853 1741 4263 
L 1831 4263 
Q 1853 4263 1873 4245 
Q 1894 4228 1894 4206 
L 1894 428 
Q 1894 225 2694 225 
L 2694 0 
L 594 0 
z
" transform="scale(0.015625)"/>
      <path id="DejaVuSans-1e" d="M 750 3309 
L 1409 3309 
L 1409 2516 
L 750 2516 
L 750 3309 
z
M 750 794 
L 1409 794 
L 1409 256 
L 897 -744 
L 494 -744 
L 750 256 
L 750 794 
z
" transform="scale(0.015625)"/>
      <path id="Cmr10-5f" d="M 213 0 
L 213 225 
Q 872 225 872 428 
L 872 3944 
Q 872 4147 213 4147 
L 213 4372 
L 2491 4372 
Q 2841 4372 3191 4228 
Q 3541 4084 3767 3809 
Q 3994 3534 3994 3169 
Q 3994 2813 3766 2544 
Q 3538 2275 3191 2136 
Q 2844 1997 2491 1997 
L 1466 1997 
L 1466 428 
Q 1466 225 2125 225 
L 2125 0 
L 213 0 
z
M 1447 2188 
L 2316 2188 
Q 2669 2188 2887 2289 
Q 3106 2391 3207 2605 
Q 3309 2819 3309 3169 
Q 3309 3691 3079 3919 
Q 2850 4147 2316 4147 
L 1772 4147 
Q 1656 4147 1592 4137 
Q 1528 4128 1487 4083 
Q 1447 4038 1447 3944 
L 1447 2188 
z
" transform="scale(0.015625)"/>
      <path id="Cmsy10-1d" d="M 653 -878 
Q 600 -878 565 -837 
Q 531 -797 531 -750 
Q 531 -697 565 -659 
Q 600 -622 653 -622 
L 4325 -622 
Q 4375 -622 4408 -659 
Q 4441 -697 4441 -750 
Q 4441 -797 4408 -837 
Q 4375 -878 4325 -878 
L 653 -878 
z
M 531 494 
Q 531 572 616 616 
L 4013 2222 
L 594 3834 
Q 531 3863 531 3944 
Q 531 3991 568 4031 
Q 606 4072 659 4072 
Q 691 4072 709 4063 
L 4384 2328 
Q 4441 2300 4441 2222 
Q 4441 2144 4366 2100 
L 709 378 
Q 691 366 659 366 
Q 606 366 568 403 
Q 531 441 531 494 
z
" transform="scale(0.015625)"/>
      <path id="Cmmi10-26" d="M 1281 -97 
Q 1059 -97 868 -14 
Q 678 69 536 225 
Q 394 381 325 573 
Q 256 766 256 991 
Q 256 1391 445 1767 
Q 634 2144 961 2419 
Q 1288 2694 1672 2791 
Q 1484 3138 1386 3389 
Q 1288 3641 1288 3903 
Q 1288 4097 1378 4245 
Q 1469 4394 1628 4478 
Q 1788 4563 1984 4563 
Q 2175 4563 2741 4434 
Q 2888 4400 2888 4263 
Q 2888 4156 2809 4068 
Q 2731 3981 2625 3981 
Q 2547 3981 2484 4017 
Q 2422 4053 2287 4143 
Q 2153 4234 2047 4282 
Q 1941 4331 1825 4331 
Q 1694 4331 1589 4251 
Q 1484 4172 1484 4044 
Q 1484 3841 1664 3577 
Q 1844 3313 2175 2900 
Q 2553 2419 2553 1838 
Q 2553 1550 2470 1215 
Q 2388 881 2230 584 
Q 2072 288 1826 95 
Q 1581 -97 1281 -97 
z
M 1294 78 
Q 1544 78 1723 337 
Q 1903 597 1995 955 
Q 2088 1313 2088 1556 
Q 2088 2034 1753 2631 
Q 1416 2538 1172 2238 
Q 928 1938 803 1547 
Q 678 1156 678 806 
Q 678 500 837 289 
Q 997 78 1294 78 
z
" transform="scale(0.015625)"/>
     </defs>
     <use xlink:href="#Cmmi10-58"/>
     <use xlink:href="#Cmr10-29" transform="translate(66.777401 0)"/>
     <use xlink:href="#Cmr10-64" transform="translate(164.463005 0)"/>
     <use xlink:href="#Cmsy10-11" transform="translate(234.463062 0)"/>
     <use xlink:href="#Cmmi10-42" transform="translate(332.148666 0)"/>
     <use xlink:href="#DejaVuSans-1e" transform="translate(396.455307 0)"/>
     <use xlink:href="#DejaVuSans-3" transform="translate(430.146713 0)"/>
     <use xlink:href="#DejaVuSans-3" transform="translate(461.933823 0)"/>
     <use xlink:href="#DejaVuSans-3" transform="translate(493.720932 0)"/>
     <use xlink:href="#Cmr10-5f" transform="translate(525.508041 0)"/>
     <use xlink:href="#Cmr10-84" transform="translate(593.52562 0)"/>
     <use xlink:href="#Cmr10-3e" transform="translate(632.636948 0)"/>
     <use xlink:href="#Cmmi10-42" transform="translate(676.989542 0)"/>
     <use xlink:href="#Cmr10-77" transform="translate(741.296183 0)"/>
     <use xlink:href="#Cmmi10-4b" transform="translate(780.114542 0)"/>
     <use xlink:href="#Cmr10-44" transform="translate(823.034464 0)"/>
     <use xlink:href="#Cmsy10-1d" transform="translate(881.852881 0)"/>
     <use xlink:href="#Cmr10-64" transform="translate(979.538485 0)"/>
     <use xlink:href="#Cmsy10-11" transform="translate(1049.538542 0)"/>
     <use xlink:href="#Cmr10-7c" transform="translate(1144.872584 2.875)"/>
     <use xlink:href="#Cmmi10-58" transform="translate(1147.224146 0)"/>
     <use xlink:href="#Cmr10-48" transform="translate(1210.668538 0)"/>
     <use xlink:href="#Cmsy10-1d" transform="translate(1258.354142 0)"/>
     <use xlink:href="#Cmr10-64" transform="translate(1356.039746 0)"/>
     <use xlink:href="#Cmsy10-11" transform="translate(1426.039803 0)"/>
     <use xlink:href="#Cmmi10-26" transform="translate(1523.725407 0)"/>
    </g>
   </g>
   <g id="text_20">
    <!-- frozen -->
    <g transform="translate(661.176 53.630437) scale(0.08 -0.08)">
     <defs>
      <path id="DejaVuSans-5d" d="M 353 3500 
L 3084 3500 
L 3084 2975 
L 922 459 
L 3084 459 
L 3084 0 
L 275 0 
L 275 525 
L 2438 3041 
L 353 3041 
L 353 3500 
z
" transform="scale(0.015625)"/>
     </defs>
     <use xlink:href="#DejaVuSans-49"/>
     <use xlink:href="#DejaVuSans-55" transform="translate(35.203125 0)"/>
     <use xlink:href="#DejaVuSans-52" transform="translate(74.109375 0)"/>
     <use xlink:href="#DejaVuSans-5d" transform="translate(135.296875 0)"/>
     <use xlink:href="#DejaVuSans-48" transform="translate(187.78125 0)"/>
     <use xlink:href="#DejaVuSans-51" transform="translate(249.3125 0)"/>
    </g>
   </g>
   <g id="text_21">
    <!-- trainable -->
    <g transform="translate(661.176 71.371237) scale(0.08 -0.08)">
     <use xlink:href="#DejaVuSans-57"/>
     <use xlink:href="#DejaVuSans-55" transform="translate(39.203125 0)"/>
     <use xlink:href="#DejaVuSans-44" transform="translate(80.3125 0)"/>
     <use xlink:href="#DejaVuSans-4c" transform="translate(141.59375 0)"/>
     <use xlink:href="#DejaVuSans-51" transform="translate(169.375 0)"/>
     <use xlink:href="#DejaVuSans-44" transform="translate(232.75 0)"/>
     <use xlink:href="#DejaVuSans-45" transform="translate(294.03125 0)"/>
     <use xlink:href="#DejaVuSans-4f" transform="translate(357.515625 0)"/>
     <use xlink:href="#DejaVuSans-48" transform="translate(385.296875 0)"/>
    </g>
   </g>
   <g id="text_22">
    <!-- deployment-time -->
    <g transform="translate(661.176 89.112037) scale(0.08 -0.08)">
     <defs>
      <path id="DejaVuSans-50" d="M 3328 2828 
Q 3544 3216 3844 3400 
Q 4144 3584 4550 3584 
Q 5097 3584 5394 3201 
Q 5691 2819 5691 2113 
L 5691 0 
L 5113 0 
L 5113 2094 
Q 5113 2597 4934 2840 
Q 4756 3084 4391 3084 
Q 3944 3084 3684 2787 
Q 3425 2491 3425 1978 
L 3425 0 
L 2847 0 
L 2847 2094 
Q 2847 2600 2669 2842 
Q 2491 3084 2119 3084 
Q 1678 3084 1418 2786 
Q 1159 2488 1159 1978 
L 1159 0 
L 581 0 
L 581 3500 
L 1159 3500 
L 1159 2956 
Q 1356 3278 1631 3431 
Q 1906 3584 2284 3584 
Q 2666 3584 2933 3390 
Q 3200 3197 3328 2828 
z
" transform="scale(0.015625)"/>
      <path id="DejaVuSans-10" d="M 313 2009 
L 1997 2009 
L 1997 1497 
L 313 1497 
L 313 2009 
z
" transform="scale(0.015625)"/>
     </defs>
     <use xlink:href="#DejaVuSans-47"/>
     <use xlink:href="#DejaVuSans-48" transform="translate(63.484375 0)"/>
     <use xlink:href="#DejaVuSans-53" transform="translate(125.015625 0)"/>
     <use xlink:href="#DejaVuSans-4f" transform="translate(188.5 0)"/>
     <use xlink:href="#DejaVuSans-52" transform="translate(216.28125 0)"/>
     <use xlink:href="#DejaVuSans-5c" transform="translate(277.46875 0)"/>
     <use xlink:href="#DejaVuSans-50" transform="translate(336.65625 0)"/>
     <use xlink:href="#DejaVuSans-48" transform="translate(434.0625 0)"/>
     <use xlink:href="#DejaVuSans-51" transform="translate(495.59375 0)"/>
     <use xlink:href="#DejaVuSans-57" transform="translate(558.96875 0)"/>
     <use xlink:href="#DejaVuSans-10" transform="translate(598.171875 0)"/>
     <use xlink:href="#DejaVuSans-57" transform="translate(634.25 0)"/>
     <use xlink:href="#DejaVuSans-4c" transform="translate(673.453125 0)"/>
     <use xlink:href="#DejaVuSans-50" transform="translate(701.234375 0)"/>
     <use xlink:href="#DejaVuSans-48" transform="translate(798.640625 0)"/>
    </g>
   </g>
  </g>
 </g>
 <defs>
  <clipPath id="p75f40c5d4c">
   <rect x="7.2" y="7.2" width="725.4" height="393.624"/>
  </clipPath>
 </defs>
</svg>
